STARTFONT 2.1
COMMENT
COMMENT Converted from OpenType font "Q:\font stuff\winfont\Break.ttf" by "otf2bdf 3.0".
COMMENT
FONT -FreeType-Break-Medium-R-Normal--96-960-72-72-P-404-ISO10646-1
SIZE 96 72 72
FONTBOUNDINGBOX 111 81 -1 -7
STARTPROPERTIES 19
FOUNDRY "FreeType"
FAMILY_NAME "Break"
WEIGHT_NAME "Medium"
SLANT "R"
SETWIDTH_NAME "Normal"
ADD_STYLE_NAME ""
PIXEL_SIZE 96
POINT_SIZE 960
RESOLUTION_X 72
RESOLUTION_Y 72
SPACING "P"
AVERAGE_WIDTH 404
CHARSET_REGISTRY "ISO10646"
CHARSET_ENCODING "1"
FONT_ASCENT 64
FONT_DESCENT 16
COPYRIGHT "design: onezero/©2003onezero/contact: onezero@gmx.ch"
_OTF_FONTFILE "Q:\font stuff\winfont\Break.ttf"
_OTF_PSNAME "Break"
ENDPROPERTIES
CHARS 99
STARTCHAR 0020
ENCODING 32
SWIDTH 833 0
DWIDTH 80 0
BBX 0 0 0 0
BITMAP
ENDCHAR
STARTCHAR 0021
ENCODING 33
SWIDTH 135 0
DWIDTH 13 0
BBX 6 64 1 0
BITMAP
FC
FC
FC
FC
FC
FC
FC
FC
FC
FC
FC
FC
FC
FC
FC
FC
FC
FC
FC
FC
FC
FC
FC
FC
FC
FC
FC
FC
FC
FC
FC
FC
FC
FC
FC
FC
FC
FC
FC
FC
FC
FC
FC
FC
FC
FC
FC
FC
FC
FC
FC
00
00
00
00
00
00
00
FC
FC
FC
FC
FC
FC
ENDCHAR
STARTCHAR 0022
ENCODING 34
SWIDTH 583 0
DWIDTH 56 0
BBX 18 11 1 53
BITMAP
FC0FC0
FC0FC0
FC0FC0
FC0FC0
FC0FC0
FC0FC0
FC0FC0
FC0FC0
FC0FC0
FC0FC0
FC0FC0
ENDCHAR
STARTCHAR 0026
ENCODING 38
SWIDTH 635 0
DWIDTH 61 0
BBX 57 64 1 0
BITMAP
0000FFFFFE000000
0003FFFFFFC00000
000FFFFFFFE00000
001FFFFFFFF00000
003FFFFFFFF80000
007FFFFFFFFC0000
00FF800003FE0000
00FF000000FF0000
01FC0000007F0000
01FC0000003F0000
01F80000003F8000
01F80000001F8000
03F80000001F8000
03F00000001F8000
03F00000001F8000
03F00000001F8000
03F80000001F8000
03F80000001F8000
01F80000001F8000
01F80000003F8000
01FC0000003F0000
00FE0000007F0000
00FF000001FE0000
007F800007FE0000
007FC0001FFC0000
003FE000FFF80000
001FF003FFF00000
000FF81FFFE00000
0007FC7FFF800000
0003FFFFFC000000
0001FFFFF0000000
0000FFFFC0000000
0001FFFE00000000
0007FFF800000000
001FFFF000000000
00FFFFF800000000
03FFFFFC00000000
07FFE3FE00000000
0FFF81FF00000000
1FFC00FF80000000
3FF0007FC0000000
3FC0003FE0000000
7F00001FF0000000
7E00000FF8000000
FE000007FC000000
FC000003FE000000
FC000001FF000000
FC000000FF9F8000
FC0000007FDF8000
FC0000003FFF8000
FC0000001FFF8000
FC0000000FFF8000
FC00000007FF8000
FE00000003FF8000
7E00000001FF0000
7F00000000FF8000
7F80000000FFC000
3FE0000003FFE000
1FFFFFFFFFFFF000
0FFFFFFFFFFFF800
07FFFFFFFFF7FC00
03FFFFFFFFE3FE00
01FFFFFFFFC1FF00
003FFFFFFE00FF80
ENDCHAR
STARTCHAR 0027
ENCODING 39
SWIDTH 333 0
DWIDTH 32 0
BBX 0 0 0 0
BITMAP
ENDCHAR
STARTCHAR 0028
ENCODING 40
SWIDTH 125 0
DWIDTH 12 0
BBX 11 78 0 -7
BITMAP
0400
0E00
1F00
1FC0
3FC0
7F80
7F00
7E00
FE00
FC00
FC00
FC00
FC00
FC00
FC00
FC00
FC00
FC00
FC00
FC00
FC00
FC00
FC00
FC00
FC00
FC00
FC00
FC00
FC00
FC00
FC00
FC00
FC00
FC00
FC00
FC00
FC00
FC00
FC00
FC00
FC00
FC00
FC00
FC00
FC00
FC00
FC00
FC00
FC00
FC00
FC00
FC00
FC00
FC00
FC00
FC00
FC00
FC00
FC00
FC00
FC00
FC00
FC00
FC00
FC00
FC00
FC00
FC00
FE00
FE00
7F00
7F80
3FC0
3FE0
1FC0
0F80
0700
0200
ENDCHAR
STARTCHAR 0029
ENCODING 41
SWIDTH 177 0
DWIDTH 17 0
BBX 11 78 0 -7
BITMAP
0800
1C00
3E00
7F00
FF80
7F80
3FC0
1FC0
0FC0
0FE0
07E0
07E0
07E0
07E0
07E0
07E0
07E0
07E0
07E0
07E0
07E0
07E0
07E0
07E0
07E0
07E0
07E0
07E0
07E0
07E0
07E0
07E0
07E0
07E0
07E0
07E0
07E0
07E0
07E0
07E0
07E0
07E0
07E0
07E0
07E0
07E0
07E0
07E0
07E0
07E0
07E0
07E0
07E0
07E0
07E0
07E0
07E0
07E0
07E0
07E0
07E0
07E0
07E0
07E0
07E0
07E0
07E0
07E0
0FE0
0FE0
0FC0
1FC0
3F80
7F80
7F00
3E00
1C00
0400
ENDCHAR
STARTCHAR 002C
ENCODING 44
SWIDTH 135 0
DWIDTH 13 0
BBX 6 12 1 -6
BITMAP
FC
FC
FC
FC
FC
FC
FC
FC
FC
FC
FC
FC
ENDCHAR
STARTCHAR 002D
ENCODING 45
SWIDTH 406 0
DWIDTH 39 0
BBX 31 6 1 30
BITMAP
FFFFFFFE
FFFFFFFE
FFFFFFFE
FFFFFFFE
FFFFFFFE
FFFFFFFE
ENDCHAR
STARTCHAR 002E
ENCODING 46
SWIDTH 135 0
DWIDTH 13 0
BBX 6 6 1 0
BITMAP
FC
FC
FC
FC
FC
FC
ENDCHAR
STARTCHAR 002F
ENCODING 47
SWIDTH 375 0
DWIDTH 36 0
BBX 33 66 0 -1
BITMAP
0000000800
0000001E00
0000001F80
0000003F80
0000003F00
0000007F00
0000007F00
000000FE00
000000FE00
000000FC00
000001FC00
000001F800
000003F800
000003F000
000007F000
000007F000
000007E000
00000FE000
00000FC000
00001FC000
00001F8000
00003F8000
00003F8000
00007F0000
00007F0000
00007E0000
0000FE0000
0000FC0000
0001FC0000
0001FC0000
0003F80000
0003F80000
0003F00000
0007F00000
0007E00000
000FE00000
000FC00000
001FC00000
001FC00000
003F800000
003F800000
003F000000
007F000000
007E000000
00FE000000
00FE000000
01FC000000
01FC000000
01F8000000
03F8000000
03F0000000
07F0000000
07E0000000
0FE0000000
0FE0000000
0FC0000000
1FC0000000
1F80000000
3F80000000
3F00000000
7F00000000
7F00000000
FE00000000
FE00000000
3C00000000
0C00000000
ENDCHAR
STARTCHAR 0030
ENCODING 48
SWIDTH 583 0
DWIDTH 56 0
BBX 49 64 1 0
BITMAP
003FFFFFFE0000
01FFFFFFFFC000
03FFFFFFFFE000
07FFFFFFFFF000
0FFFFFFFFFF800
1FFFFFFFFFFC00
3FE0000003FE00
7F80000000FF00
7F000000007F00
7E000000003F00
FE000000003F80
FC000000001F80
FC000000001F80
FC000000001F80
FC000000001F80
FC000000001F80
FC000000081F80
FC000000181F80
FC000000381F80
FC000000781F80
FC000000F81F80
FC000001F81F80
FC000003F81F80
FC000007F81F80
FC00000FF01F80
FC00001FE01F80
FC00003FC01F80
FC00007F801F80
FC0000FF001F80
FC0001FE001F80
FC0003FC001F80
FC0007F8001F80
FC000FF0001F80
FC001FE0001F80
FC003FC0001F80
FC007F80001F80
FC00FF00001F80
FC01FE00001F80
FC03FC00001F80
FC07F800001F80
FC0FF000001F80
FC0FE000001F80
FC0FC000001F80
FC0F8000001F80
FC0F0000001F80
FC0E0000001F80
FC0C0000001F80
FC080000001F80
FC000000001F80
FC000000001F80
FC000000001F80
FC000000001F80
FC000000001F80
FE000000003F80
7E000000003F00
7F000000007F00
7F80000000FF00
3FE0000003FE00
1FFFFFFFFFFC00
0FFFFFFFFFF800
07FFFFFFFFF000
03FFFFFFFFE000
01FFFFFFFFC000
003FFFFFFE0000
ENDCHAR
STARTCHAR 0031
ENCODING 49
SWIDTH 531 0
DWIDTH 51 0
BBX 45 64 0 0
BITMAP
FFFFFFFFE000
FFFFFFFFF800
FFFFFFFFFE00
FFFFFFFFFF00
FFFFFFFFFF80
FFFFFFFFFFC0
000000003FE0
000000000FE0
0000000007F0
0000000007F0
0000000003F0
0000000003F8
0000000001F8
0000000001F8
0000000001F8
0000000001F8
0000000001F8
0000000001F8
0000000001F8
0000000001F8
0000000001F8
0000000001F8
0000000001F8
0000000001F8
0000000001F8
0000000001F8
0000000001F8
0000000001F8
0000000001F8
0000000001F8
0000000001F8
0000000001F8
0000000001F8
0000000001F8
0000000001F8
0000000001F8
0000000001F8
0000000001F8
0000000001F8
0000000001F8
0000000001F8
0000000001F8
0000000001F8
0000000001F8
0000000001F8
0000000001F8
0000000001F8
0000000001F8
0000000001F8
0000000001F8
0000000001F8
0000000001F8
0000000001F8
0000000001F8
0000000001F8
0000000001F8
0000000001F8
0000000001F8
0000000001F8
0000000001F8
0000000001F8
0000000001F8
0000000001F8
0000000001F8
ENDCHAR
STARTCHAR 0032
ENCODING 50
SWIDTH 583 0
DWIDTH 56 0
BBX 49 64 1 0
BITMAP
003FFFFFFE0000
01FFFFFFFFC000
03FFFFFFFFE000
07FFFFFFFFF000
0FFFFFFFFFF800
1FFFFFFFFFFC00
3FE0000003FE00
7F80000000FF00
7F000000007F00
7E000000003F00
FE000000003F80
FC000000001F80
FC000000001F80
FC000000001F80
FC000000001F80
FC000000001F80
FC000000001F80
00000000001F80
00000000001F80
00000000003F80
00000000003F00
00000000007F00
0000000001FE00
0000000007FE00
000000001FFC00
00000000FFF800
00000003FFF000
0000001FFFE000
0000007FFF8000
000001FFFC0000
00000FFFF00000
00003FFFC00000
0001FFFE000000
0007FFF8000000
003FFFC0000000
00FFFF00000000
03FFFC00000000
07FFE000000000
0FFF8000000000
1FFC0000000000
3FF00000000000
3FC00000000000
7F000000000000
7E000000000000
FE000000000000
FC000000000000
FC000000000000
FC000000000000
FC000000000000
FC000000000000
FC000000000000
FC000000000000
FC000000000000
FE000000000000
7E000000000000
7F000000000000
7F800000000000
3FE00000000000
1FFFFFFFFFFF80
0FFFFFFFFFFF80
07FFFFFFFFFF80
03FFFFFFFFFF80
01FFFFFFFFFF80
003FFFFFFFFF80
ENDCHAR
STARTCHAR 0033
ENCODING 51
SWIDTH 541 0
DWIDTH 52 0
BBX 45 64 1 0
BITMAP
FFFFFFFFE000
FFFFFFFFF800
FFFFFFFFFE00
FFFFFFFFFF00
FFFFFFFFFF80
FFFFFFFFFFC0
000000003FE0
000000000FE0
0000000007F0
0000000007F0
0000000003F0
0000000003F8
0000000001F8
0000000001F8
0000000001F8
0000000001F8
0000000001F8
0000000001F8
0000000001F8
0000000001F8
0000000001F8
0000000001F8
0000000001F8
0000000001F8
0000000001F8
0000000001F8
0000000001F8
0000000001F8
00007FFFFFF8
00007FFFFFF8
00007FFFFFF8
00007FFFFFF8
00007FFFFFF8
00007FFFFFF8
0000000001F8
0000000001F8
0000000001F8
0000000001F8
0000000001F8
0000000001F8
0000000001F8
0000000001F8
0000000001F8
0000000001F8
0000000001F8
0000000001F8
0000000001F8
0000000001F8
0000000001F8
0000000001F8
0000000001F8
0000000001F8
0000000003F8
0000000003F0
0000000007F0
0000000007F0
000000001FE0
000000003FE0
FFFFFFFFFFC0
FFFFFFFFFF80
FFFFFFFFFF00
FFFFFFFFFE00
FFFFFFFFF800
FFFFFFFFE000
ENDCHAR
STARTCHAR 0034
ENCODING 52
SWIDTH 583 0
DWIDTH 56 0
BBX 49 64 1 0
BITMAP
FC000000001F80
FC000000001F80
FC000000001F80
FC000000001F80
FC000000001F80
FC000000001F80
FC000000001F80
FC000000001F80
FC000000001F80
FC000000001F80
FC000000001F80
FC000000001F80
FC000000001F80
FC000000001F80
FC000000001F80
FC000000001F80
FC000000001F80
FC000000001F80
FC000000001F80
FC000000001F80
FC000000001F80
FC000000001F80
FC000000001F80
FC000000001F80
FC000000001F80
FC000000001F80
FC000000001F80
FC000000001F80
FC000000001F80
FC000000001F80
FC000000001F80
FE000000001F80
FE000000001F80
7F000000001F80
7F800000001F80
3FC00000001F80
3FFFFFFFFFFF80
1FFFFFFFFFFF80
0FFFFFFFFFFF80
07FFFFFFFFFF80
01FFFFFFFFFF80
00FFFFFFFFFF80
00000000001F80
00000000001F80
00000000001F80
00000000001F80
00000000001F80
00000000001F80
00000000001F80
00000000001F80
00000000001F80
00000000001F80
00000000001F80
00000000001F80
00000000001F80
00000000001F80
00000000001F80
00000000001F80
00000000001F80
00000000001F80
00000000001F80
00000000001F80
00000000001F80
00000000001F80
ENDCHAR
STARTCHAR 0035
ENCODING 53
SWIDTH 583 0
DWIDTH 56 0
BBX 49 64 1 0
BITMAP
003FFFFFFFFE00
01FFFFFFFFFE00
03FFFFFFFFFE00
07FFFFFFFFFE00
0FFFFFFFFFFE00
1FFFFFFFFFFE00
3FE00000000000
7F800000000000
7F000000000000
7E000000000000
FE000000000000
FC000000000000
FC000000000000
FC000000000000
FC000000000000
FC000000000000
FC000000000000
FC000000000000
FC000000000000
FC000000000000
FC000000000000
FE000000000000
7E000000000000
7F000000000000
3FC00000000000
3FF00000000000
1FFFFFFFFF0000
0FFFFFFFFFC000
07FFFFFFFFF000
03FFFFFFFFF800
00FFFFFFFFFC00
001FFFFFFFFE00
0000000001FE00
0000000000FF00
00000000007F00
00000000003F80
00000000003F80
00000000001F80
00000000001F80
00000000001F80
00000000001F80
00000000001F80
00000000001F80
00000000001F80
00000000001F80
00000000001F80
00000000001F80
FC000000001F80
FC000000001F80
FC000000001F80
FC000000001F80
FC000000001F80
FC000000001F80
FE000000003F80
7E000000003F00
7F000000007F00
7F80000000FF00
3FE0000003FE00
1FFFFFFFFFFC00
0FFFFFFFFFF800
07FFFFFFFFF000
03FFFFFFFFE000
01FFFFFFFFC000
003FFFFFFE0000
ENDCHAR
STARTCHAR 0036
ENCODING 54
SWIDTH 583 0
DWIDTH 56 0
BBX 49 64 1 0
BITMAP
003FFFFFFFF800
01FFFFFFFFF800
03FFFFFFFFF800
07FFFFFFFFF800
0FFFFFFFFFF800
1FFFFFFFFFF800
3FE00000000000
7F800000000000
7F000000000000
7E000000000000
FE000000000000
FC000000000000
FC000000000000
FC000000000000
FC000000000000
FC000000000000
FC000000000000
FC000000000000
FC000000000000
FC000000000000
FC000000000000
FC0FFFFFF80000
FCFFFFFFFF8000
FFFFFFFFFFE000
FFFFFFFFFFF000
FFFFFFFFFFF800
FFFFFFFFFFFC00
FFF800000FFE00
FFC0000001FE00
FF000000007F00
FF000000007F00
FE000000003F80
FC000000001F80
FC000000001F80
FC000000001F80
FC000000001F80
FC000000001F80
FC000000001F80
FC000000001F80
FC000000001F80
FC000000001F80
FC000000001F80
FC000000001F80
FC000000001F80
FC000000001F80
FC000000001F80
FC000000001F80
FC000000001F80
FC000000001F80
FC000000001F80
FC000000001F80
FC000000001F80
FC000000001F80
FE000000003F80
7E000000003F00
7F000000007F00
7F80000000FF00
3FE0000003FE00
1FFFFFFFFFFC00
0FFFFFFFFFF800
07FFFFFFFFF000
03FFFFFFFFE000
01FFFFFFFFC000
003FFFFFFE0000
ENDCHAR
STARTCHAR 0037
ENCODING 55
SWIDTH 614 0
DWIDTH 59 0
BBX 53 64 -1 0
BITMAP
0FFFFFFFFFE000
0FFFFFFFFFFC00
0FFFFFFFFFFF00
0FFFFFFFFFFF80
0FFFFFFFFFFFC0
0FFFFFFFFFFFE0
00000000001FE0
00000000000FF0
000000000007F0
000000000003F8
000000000001F8
000000000001F8
000000000001F8
000000000001F8
000000000001F8
000000000001F8
000000000001F8
000000000003F8
000000000003F8
000000000007F0
00000000000FF0
00000000001FE0
00000000003FC0
00000000007F80
0000000000FF00
0000000001FE00
0000000003FC00
0000000007F800
000000000FF000
000000001FE000
000000003FC000
000000007F8000
00000000FF0000
00000001FE0000
00000003FC0000
00000007F80000
0000000FF00000
0000001FE00000
0000003FC00000
0000007F800000
000000FF000000
000001FE000000
000003FC000000
000007F8000000
00000FF0000000
00001FE0000000
00003FC0000000
00007F80000000
0000FF00000000
0001FE00000000
0003FC00000000
0007F800000000
000FF000000000
001FE000000000
003FC000000000
007F8000000000
00FF0000000000
01FE0000000000
03FC0000000000
07F80000000000
0FF00000000000
1FE00000000000
7FC00000000000
FF800000000000
ENDCHAR
STARTCHAR 0038
ENCODING 56
SWIDTH 583 0
DWIDTH 56 0
BBX 49 64 1 0
BITMAP
003FFFFFFE0000
01FFFFFFFFC000
03FFFFFFFFE000
07FFFFFFFFF000
0FFFFFFFFFF800
1FFFFFFFFFFC00
3FE0000003FE00
7F80000000FF00
7F000000007F00
7E000000003F00
FE000000003F80
FC000000001F80
FC000000001F80
FC000000001F80
FC000000001F80
FC000000001F80
FC000000001F80
FC000000001F80
FC000000001F80
FC000000001F80
FC000000001F80
FE000000003F80
7E000000003F00
7F000000007F00
3FC0000001FF00
3FF0000007FE00
1FFFFFFFFFFC00
0FFFFFFFFFF800
07FFFFFFFFF000
0FFFFFFFFFF800
1FFFFFFFFFFC00
1FFFFFFFFFFE00
3FC0000001FE00
7F80000000FF00
7F000000007F00
7E000000003F80
FE000000003F80
FC000000001F80
FC000000001F80
FC000000001F80
FC000000001F80
FC000000001F80
FC000000001F80
FC000000001F80
FC000000001F80
FC000000001F80
FC000000001F80
FC000000001F80
FC000000001F80
FC000000001F80
FC000000001F80
FC000000001F80
FC000000001F80
FE000000003F80
7E000000003F00
7F000000007F00
7F80000000FF00
3FE0000003FE00
1FFFFFFFFFFC00
0FFFFFFFFFF800
07FFFFFFFFF000
03FFFFFFFFE000
01FFFFFFFFC000
003FFFFFFE0000
ENDCHAR
STARTCHAR 0039
ENCODING 57
SWIDTH 583 0
DWIDTH 56 0
BBX 49 64 1 0
BITMAP
003FFFFFFE0000
01FFFFFFFFC000
03FFFFFFFFE000
07FFFFFFFFF000
0FFFFFFFFFF800
1FFFFFFFFFFC00
3FE0000003FE00
7F80000000FF00
7F000000007F00
7E000000003F00
FE000000003F80
FC000000001F80
FC000000001F80
FC000000001F80
FC000000001F80
FC000000001F80
FC000000001F80
FC000000001F80
FC000000001F80
FC000000001F80
FC000000001F80
FC000000001F80
FC000000001F80
FC000000001F80
FC000000001F80
FC000000001F80
FC000000001F80
FC000000001F80
FC000000001F80
FC000000001F80
FC000000001F80
FE000000001F80
FE000000003F80
7F000000007F80
7F80000000FF80
3FC0000001FF80
3FFFFFFFFFFF80
1FFFFFFFFFFF80
0FFFFFFFFFFF80
07FFFFFFFFFF80
01FFFFFFFFDF80
00FFFFFFFF1F80
0003FFFFE01F80
00000000001F80
00000000001F80
00000000001F80
00000000001F80
00000000001F80
00000000001F80
00000000001F80
00000000001F80
00000000001F80
00000000001F80
00000000003F80
00000000003F00
00000000007F00
0000000000FF00
0000000003FE00
0FFFFFFFFFFC00
0FFFFFFFFFF800
0FFFFFFFFFF000
0FFFFFFFFFE000
0FFFFFFFFFC000
0FFFFFFFFE0000
ENDCHAR
STARTCHAR 003A
ENCODING 58
SWIDTH 135 0
DWIDTH 13 0
BBX 6 42 1 -6
BITMAP
FC
FC
FC
FC
FC
FC
00
00
00
00
00
00
00
00
00
00
00
00
00
00
00
00
00
00
00
00
00
00
00
00
FC
FC
FC
FC
FC
FC
FC
FC
FC
FC
FC
FC
ENDCHAR
STARTCHAR 003B
ENCODING 59
SWIDTH 135 0
DWIDTH 13 0
BBX 6 36 1 0
BITMAP
FC
FC
FC
FC
FC
FC
00
00
00
00
00
00
00
00
00
00
00
00
00
00
00
00
00
00
00
00
00
00
00
00
FC
FC
FC
FC
FC
FC
ENDCHAR
STARTCHAR 003C
ENCODING 60
SWIDTH 666 0
DWIDTH 64 0
BBX 0 0 0 0
BITMAP
ENDCHAR
STARTCHAR 003E
ENCODING 62
SWIDTH 666 0
DWIDTH 64 0
BBX 0 0 0 0
BITMAP
ENDCHAR
STARTCHAR 003F
ENCODING 63
SWIDTH 583 0
DWIDTH 56 0
BBX 49 64 1 0
BITMAP
003FFFFFFE0000
01FFFFFFFFC000
03FFFFFFFFE000
07FFFFFFFFF000
0FFFFFFFFFF800
1FFFFFFFFFFC00
3FE0000003FE00
7F80000000FF00
7F000000007F00
7E000000003F00
FE000000003F80
FC000000001F80
FC000000001F80
FC000000001F80
FC000000001F80
FC000000001F80
FC000000001F80
00000000001F80
00000000001F80
00000000003F80
00000000007F00
00000000007F00
0000000001FE00
0000000003FE00
000000000FFC00
000000003FF800
000000007FF000
00000001FFE000
00000003FF8000
0000000FFE0000
0000003FFC0000
0000007FF00000
000001FFE00000
000003FF800000
00000FFF000000
00001FFC000000
00007FF0000000
0000FFE0000000
0001FF80000000
0003FF00000000
0007FC00000000
000FF000000000
000FE000000000
001FC000000000
001FC000000000
001F8000000000
001F8000000000
001F8000000000
001F8000000000
001F8000000000
001F8000000000
00000000000000
00000000000000
00000000000000
00000000000000
00000000000000
00000000000000
00000000000000
001F8000000000
001F8000000000
001F8000000000
001F8000000000
001F8000000000
001F8000000000
ENDCHAR
STARTCHAR 0040
ENCODING 64
SWIDTH 635 0
DWIDTH 61 0
BBX 53 64 1 0
BITMAP
003FFFFFFFE000
01FFFFFFFFFC00
03FFFFFFFFFF00
07FFFFFFFFFF80
0FFFFFFFFFFFC0
1FFFFFFFFFFFE0
3FE00000001FE0
7F800000000FF0
7F0000000007F0
7E0000000003F8
FE0000000001F8
FC0000000001F8
FC0000000001F8
FC0000000001F8
FC000FFF8001F8
FC007FFFF001F8
FC00FFFFFC01F8
FC01FFFFFE01F8
FC03FFFFFE01F8
FC03FFFFFF01F8
FC07F8007F01F8
FC07E0003F01F8
FC07E0003F81F8
FC07E0003F81F8
FC07E0003F81F8
FC07E0003F81F8
FC07E0003F81F8
FC07E0003F81F8
FC07E0003F81F8
FC07E0003F81F8
FC07FE003F81F8
FC07FF803F81F8
FC07FFC01F81F8
FC07FFE00F81F8
FC07FFF00781F8
FC07FFF80381F8
FC07E3FC0181F8
FC07E1FE0081F8
FC07E0FF0001F8
FC07E07F8001F8
FC07E03FC001F8
FC07E01FE001F8
FC07E00FF001F8
FC07E007FFFFF8
FC07E003FFFFF8
FC07E001FFFFF0
FC07E000FFFFE0
FC07E0007FFFC0
FC07E0003FFF80
FC07E0000FF800
FC000000000000
FC000000000000
FC000000000000
FE000000000000
7E000000000000
7F000000000000
7F800000000000
3FE00000000000
1FFF8000000000
0FFF8000000000
07FF8000000000
03FF8000000000
01FF8000000000
003F8000000000
ENDCHAR
STARTCHAR 0041
ENCODING 65
SWIDTH 583 0
DWIDTH 56 0
BBX 49 65 1 -1
BITMAP
003FFFFFFE0000
01FFFFFFFF8000
03FFFFFFFFE000
07FFFFFFFFF000
0FFFFFFFFFF800
1FFFFFFFFFFC00
3FE0000003FE00
7F80000000FF00
7F000000007F00
7E000000003F00
FE000000003F80
FC000000001F80
FC000000001F80
FC000000001F80
FC000000001F80
FC000000001F80
FC000000001F80
FC000000001F80
FC000000001F80
FC000000001F80
FC000000001F80
FC000000001F80
FC000000001F80
FC000000001F80
FC000000001F80
FC000000001F80
FC000000001F80
FC000000001F80
FC000000001F80
FC000000001F80
FC000000001F80
FFFE0000001F80
FFFFC000001F80
FFFFF000001F80
FFFFF800001F80
FFFFFC00001F80
FFFFFE00001F80
FC03FF00001F80
FC00FF80001F80
FC007FC0001F80
FC003FE0001F80
FC001FE0001F80
FC000FF0001F80
FC0007F8001F80
FC0003FC001F80
FC0001FE001F80
FC0000FF001F80
FC00007F801F80
FC00003FC01F80
FC00001FE01F80
FC00000FF01F80
FC000007F81F80
FC000003FC1F80
FC000001FE1F80
FC000000FF1F80
FC000000FF9F80
FC0000007FDF80
FC0000003FFF80
FC0000001FFF80
FC0000000FFF80
FC00000007FF80
FC00000003FF80
FC00000001FF00
FC00000000FE00
00000000003C00
ENDCHAR
STARTCHAR 0042
ENCODING 66
SWIDTH 583 0
DWIDTH 56 0
BBX 49 64 1 0
BITMAP
003FFFFFFE0000
01FFFFFFFFC000
03FFFFFFFFE000
07FFFFFFFFF000
0FFFFFFFFFF800
1FFFFFFFFFFC00
3FE0000003FE00
7F80000000FF00
7F000000007F00
7E000000003F00
FE000000003F80
FC000000001F80
FC000000001F80
FC000000001F80
FC000000001F80
FC000000001F80
FC000000001F80
FC000000001F80
FC000000001F80
FC000000001F80
FC000000001F80
FC000000001F80
FC000000001F80
FC000000003F80
FC000000003F00
FC000000007F00
FC00000000FF00
FC00000007FE00
FFFFFFFFFFFC00
FFFFFFFFFFF800
FFFFFFFFFFF000
FFFFFFFFFFF000
FFFFFFFFFFF800
FFFFFFFFFFFC00
FC00000003FE00
FC00000000FF00
FC000000007F00
FC000000003F00
FC000000003F80
FC000000001F80
FC000000001F80
FC000000001F80
FC000000001F80
FC000000001F80
FC000000001F80
FC000000001F80
FC000000001F80
FC000000001F80
FC000000001F80
FC000000001F80
FC000000001F80
FC000000001F80
FC000000001F80
FC000000003F80
FC000000003F00
FC000000007F00
FC00000000FF00
FC00000003FE00
FFFFFFFFFFFC00
FFFFFFFFFFF800
FFFFFFFFFFF000
FFFFFFFFFFE000
FFFFFFFFFFC000
FFFFFFFFFE0000
ENDCHAR
STARTCHAR 0043
ENCODING 67
SWIDTH 541 0
DWIDTH 52 0
BBX 45 64 1 0
BITMAP
003FFFFFFFF8
01FFFFFFFFF8
03FFFFFFFFF8
07FFFFFFFFF8
0FFFFFFFFFF8
1FFFFFFFFFF8
3FE000000000
7F8000000000
7F0000000000
7E0000000000
FE0000000000
FC0000000000
FC0000000000
FC0000000000
FC0000000000
FC0000000000
FC0000000000
FC0000000000
FC0000000000
FC0000000000
FC0000000000
FC0000000000
FC0000000000
FC0000000000
FC0000000000
FC0000000000
FC0000000000
FC0000000000
FC0000000000
FC0000000000
FC0000000000
FC0000000000
FC0000000000
FC0000000000
FC0000000000
FC0000000000
FC0000000000
FC0000000000
FC0000000000
FC0000000000
FC0000000000
FC0000000000
FC0000000000
FC0000000000
FC0000000000
FC0000000000
FC0000000000
FC0000000000
FC0000000000
FC0000000000
FC0000000000
FC0000000000
FC0000000000
FE0000000000
7E0000000000
7F0000000000
7F8000000000
3FE000000000
1FFFFFFFFFF8
0FFFFFFFFFF8
07FFFFFFFFF8
03FFFFFFFFF8
01FFFFFFFFF8
003FFFFFFFF8
ENDCHAR
STARTCHAR 0044
ENCODING 68
SWIDTH 583 0
DWIDTH 56 0
BBX 49 64 1 0
BITMAP
FFFFFFFFFE0000
FFFFFFFFFFC000
FFFFFFFFFFE000
FFFFFFFFFFF000
FFFFFFFFFFF800
FFFFFFFFFFFC00
FC00000003FE00
FC00000000FF00
FC000000007F00
FC000000003F00
FC000000003F80
FC000000001F80
FC000000001F80
FC000000001F80
FC000000001F80
FC000000001F80
FC000000001F80
FC000000001F80
FC000000001F80
FC000000001F80
FC000000001F80
FC000000001F80
FC000000001F80
FC000000001F80
FC000000001F80
FC000000001F80
FC000000001F80
FC000000001F80
FC000000001F80
FC000000001F80
FC000000001F80
FC000000001F80
FC000000001F80
FC000000001F80
FC000000001F80
FC000000001F80
FC000000001F80
FC000000001F80
FC000000001F80
FC000000001F80
FC000000001F80
FC000000001F80
FC000000001F80
FC000000001F80
FC000000001F80
FC000000001F80
FC000000001F80
FC000000001F80
FC000000001F80
FC000000001F80
FC000000001F80
FC000000001F80
FC000000001F80
FC000000003F80
FC000000003F00
FC000000007F00
FC00000000FF00
FC00000003FE00
FFFFFFFFFFFC00
FFFFFFFFFFF800
FFFFFFFFFFF000
FFFFFFFFFFE000
FFFFFFFFFFC000
FFFFFFFFFE0000
ENDCHAR
STARTCHAR 0045
ENCODING 69
SWIDTH 541 0
DWIDTH 52 0
BBX 45 64 1 0
BITMAP
003FFFFFFFF8
01FFFFFFFFF8
03FFFFFFFFF8
07FFFFFFFFF8
0FFFFFFFFFF8
1FFFFFFFFFF8
3FE000000000
7F8000000000
7F0000000000
7E0000000000
FE0000000000
FC0000000000
FC0000000000
FC0000000000
FC0000000000
FC0000000000
FC0000000000
FC0000000000
FC0000000000
FC0000000000
FC0000000000
FC0000000000
FC0000000000
FC0000000000
FC0000000000
FC0000000000
FC0000000000
FC0000000000
FFFFFFFFFFF8
FFFFFFFFFFF8
FFFFFFFFFFF8
FFFFFFFFFFF8
FFFFFFFFFFF8
FFFFFFFFFFF8
FC0000000000
FC0000000000
FC0000000000
FC0000000000
FC0000000000
FC0000000000
FC0000000000
FC0000000000
FC0000000000
FC0000000000
FC0000000000
FC0000000000
FC0000000000
FC0000000000
FC0000000000
FC0000000000
FC0000000000
FC0000000000
FC0000000000
FE0000000000
7E0000000000
7F0000000000
7F8000000000
3FE000000000
1FFFFFFFFFF8
0FFFFFFFFFF8
07FFFFFFFFF8
03FFFFFFFFF8
01FFFFFFFFF8
003FFFFFFFF8
ENDCHAR
STARTCHAR 0046
ENCODING 70
SWIDTH 541 0
DWIDTH 52 0
BBX 45 64 1 0
BITMAP
003FFFFFFFF8
01FFFFFFFFF8
03FFFFFFFFF8
07FFFFFFFFF8
0FFFFFFFFFF8
1FFFFFFFFFF8
3FE000000000
7F8000000000
7F0000000000
7E0000000000
FE0000000000
FC0000000000
FC0000000000
FC0000000000
FC0000000000
FC0000000000
FC0000000000
FC0000000000
FC0000000000
FC0000000000
FC0000000000
FC0000000000
FC0000000000
FC0000000000
FC0000000000
FC0000000000
FC0000000000
FC0000000000
FFFFFFFFFFF8
FFFFFFFFFFF8
FFFFFFFFFFF8
FFFFFFFFFFF8
FFFFFFFFFFF8
FFFFFFFFFFF8
FC0000000000
FC0000000000
FC0000000000
FC0000000000
FC0000000000
FC0000000000
FC0000000000
FC0000000000
FC0000000000
FC0000000000
FC0000000000
FC0000000000
FC0000000000
FC0000000000
FC0000000000
FC0000000000
FC0000000000
FC0000000000
FC0000000000
FC0000000000
FC0000000000
FC0000000000
FC0000000000
FC0000000000
FC0000000000
FC0000000000
FC0000000000
FC0000000000
FC0000000000
FC0000000000
ENDCHAR
STARTCHAR 0047
ENCODING 71
SWIDTH 583 0
DWIDTH 56 0
BBX 49 64 1 0
BITMAP
003FFFFFFFF800
01FFFFFFFFF800
03FFFFFFFFF800
07FFFFFFFFF800
0FFFFFFFFFF800
1FFFFFFFFFF800
3FE00000000000
7F800000000000
7F000000000000
7E000000000000
FE000000000000
FC000000000000
FC000000000000
FC000000000000
FC000000000000
FC000000000000
FC000000000000
FC000000000000
FC000000000000
FC000000000000
FC000000000000
FC000000000000
FC000000000000
FC000000000000
FC000000000000
FC000000000000
FC000000000000
FC000000000000
FFFFFFFFFF0000
FFFFFFFFFFC000
FFFFFFFFFFE000
FFFFFFFFFFF800
FFFFFFFFFFFC00
FFFFFFFFFFFC00
FC00000003FE00
FC00000000FF00
FC000000007F00
FC000000003F00
FC000000003F80
FC000000001F80
FC000000001F80
FC000000001F80
FC000000001F80
FC000000001F80
FC000000001F80
FC000000001F80
FC000000001F80
FC000000001F80
FC000000001F80
FC000000001F80
FC000000001F80
FC000000001F80
FC000000001F80
FE000000003F80
7E000000003F00
7F000000007F00
7F80000000FF00
3FE0000003FE00
1FFFFFFFFFFC00
0FFFFFFFFFF800
07FFFFFFFFF000
03FFFFFFFFE000
01FFFFFFFFC000
003FFFFFFE0000
ENDCHAR
STARTCHAR 0048
ENCODING 72
SWIDTH 583 0
DWIDTH 56 0
BBX 49 64 1 0
BITMAP
FC000000001F80
FC000000001F80
FC000000001F80
FC000000001F80
FC000000001F80
FC000000001F80
FC000000001F80
FC000000001F80
FC000000001F80
FC000000001F80
FC000000001F80
FC000000001F80
FC000000001F80
FC000000001F80
FC000000001F80
FC000000001F80
FC000000001F80
FC000000001F80
FC000000001F80
FC000000001F80
FC000000001F80
FC000000001F80
FC000000001F80
FC000000001F80
FC000000001F80
FC000000001F80
FC000000001F80
FC000000001F80
FFFFFFFFFFFF80
FFFFFFFFFFFF80
FFFFFFFFFFFF80
FFFFFFFFFFFF80
FFFFFFFFFFFF80
FFFFFFFFFFFF80
FC000000001F80
FC000000001F80
FC000000001F80
FC000000001F80
FC000000001F80
FC000000001F80
FC000000001F80
FC000000001F80
FC000000001F80
FC000000001F80
FC000000001F80
FC000000001F80
FC000000001F80
FC000000001F80
FC000000001F80
FC000000001F80
FC000000001F80
FC000000001F80
FC000000001F80
FC000000001F80
FC000000001F80
FC000000001F80
FC000000001F80
FC000000001F80
FC000000001F80
FC000000001F80
FC000000001F80
FC000000001F80
FC000000001F80
FC000000001F80
ENDCHAR
STARTCHAR 0049
ENCODING 73
SWIDTH 135 0
DWIDTH 13 0
BBX 6 64 1 0
BITMAP
FC
FC
FC
FC
FC
FC
FC
FC
FC
FC
FC
FC
FC
FC
FC
FC
FC
FC
FC
FC
FC
FC
FC
FC
FC
FC
FC
FC
FC
FC
FC
FC
FC
FC
FC
FC
FC
FC
FC
FC
FC
FC
FC
FC
FC
FC
FC
FC
FC
FC
FC
FC
FC
FC
FC
FC
FC
FC
FC
FC
FC
FC
FC
FC
ENDCHAR
STARTCHAR 004A
ENCODING 74
SWIDTH 531 0
DWIDTH 51 0
BBX 45 64 0 0
BITMAP
0000000001F8
0000000001F8
0000000001F8
0000000001F8
0000000001F8
0000000001F8
0000000001F8
0000000001F8
0000000001F8
0000000001F8
0000000001F8
0000000001F8
0000000001F8
0000000001F8
0000000001F8
0000000001F8
0000000001F8
0000000001F8
0000000001F8
0000000001F8
0000000001F8
0000000001F8
0000000001F8
0000000001F8
0000000001F8
0000000001F8
0000000001F8
0000000001F8
0000000001F8
0000000001F8
0000000001F8
0000000001F8
0000000001F8
0000000001F8
0000000001F8
0000000001F8
0000000001F8
0000000001F8
0000000001F8
0000000001F8
0000000001F8
0000000001F8
0000000001F8
0000000001F8
0000000001F8
0000000001F8
0000000001F8
0000000001F8
0000000001F8
0000000001F8
0000000001F8
0000000001F8
0000000003F8
0000000003F0
0000000007F0
0000000007F0
000000001FE0
000000003FE0
FFFFFFFFFFC0
FFFFFFFFFF80
FFFFFFFFFF00
FFFFFFFFFE00
FFFFFFFFF800
FFFFFFFFE000
ENDCHAR
STARTCHAR 004B
ENCODING 75
SWIDTH 593 0
DWIDTH 57 0
BBX 50 64 1 0
BITMAP
FC000000001F00
FC000000007F00
FC00000000FF00
FC00000001FF00
FC00000003FF00
FC00000007FF00
FC0000000FF800
FC0000001FF000
FC0000003FE000
FC0000007FC000
FC000000FF8000
FC000001FF0000
FC000003FE0000
FC000007FC0000
FC00000FF80000
FC00001FF00000
FC00003FE00000
FC00007FC00000
FC0000FF800000
FC0001FF000000
FC0003FE000000
FC0007FC000000
FC000FF8000000
FC001FF0000000
FC003FE0000000
FC007FC0000000
FC00FF80000000
FC03FF00000000
FFFFFE00000000
FFFFFC00000000
FFFFF800000000
FFFFF800000000
FFFFFC00000000
FFFFFE00000000
FC01FF00000000
FC00FF80000000
FC007FC0000000
FC003FE0000000
FC001FF0000000
FC000FF8000000
FC0007FC000000
FC0003FE000000
FC0001FF000000
FC0000FF800000
FC00007FC00000
FC00003FE00000
FC00001FF00000
FC00000FF80000
FC000007FC0000
FC000003FE0000
FC000001FF0000
FC000000FF8000
FC0000007FC000
FC0000003FE000
FC0000001FF000
FC0000000FF800
FC00000007FC00
FC00000003FE00
FC00000001FFC0
FC00000000FFC0
FC000000007FC0
FC000000003FC0
FC000000001FC0
FC0000000007C0
ENDCHAR
STARTCHAR 004C
ENCODING 76
SWIDTH 531 0
DWIDTH 51 0
BBX 45 65 1 0
BITMAP
FC0000000000
FC0000000000
FC0000000000
FC0000000000
FC0000000000
FC0000000000
FC0000000000
FC0000000000
FC0000000000
FC0000000000
FC0000000000
FC0000000000
FC0000000000
FC0000000000
FC0000000000
FC0000000000
FC0000000000
FC0000000000
FC0000000000
FC0000000000
FC0000000000
FC0000000000
FC0000000000
FC0000000000
FC0000000000
FC0000000000
FC0000000000
FC0000000000
FC0000000000
FC0000000000
FC0000000000
FC0000000000
FC0000000000
FC0000000000
FC0000000000
FC0000000000
FC0000000000
FC0000000000
FC0000000000
FC0000000000
FC0000000000
FC0000000000
FC0000000000
FC0000000000
FC0000000000
FC0000000000
FC0000000000
FC0000000000
FC0000000000
FC0000000000
FC0000000000
FC0000000000
FC0000000000
FC0000000000
FE0000000000
7E0000000000
7F0000000000
7F8000000000
3FE000000000
1FFFFFFFFFF8
0FFFFFFFFFF8
07FFFFFFFFF8
03FFFFFFFFF8
01FFFFFFFFF8
003FFFFFFFF8
ENDCHAR
STARTCHAR 004D
ENCODING 77
SWIDTH 1031 0
DWIDTH 99 0
BBX 92 64 1 0
BITMAP
003FFFFFFE0007FFFFFFC000
01FFFFFFFFC03FFFFFFFF800
03FFFFFFFFE07FFFFFFFFC00
07FFFFFFFFF8FFFFFFFFFE00
0FFFFFFFFFFDFFFFFFFFFF00
1FFFFFFFFFFFFFFFFFFFFF80
3FE0000003FFFC0000007FC0
7F80000000FFF00000001FE0
7F000000007FE00000000FE0
7E000000003FC000000007E0
FE000000003FC000000007F0
FC000000001F8000000003F0
FC000000001F8000000003F0
FC000000001F8000000003F0
FC000000001F8000000003F0
FC000000001F8000000003F0
FC000000001F8000000003F0
FC000000001F8000000003F0
FC000000001F8000000003F0
FC000000001F8000000003F0
FC000000001F8000000003F0
FC000000001F8000000003F0
FC000000001F8000000003F0
FC000000001F8000000003F0
FC000000001F8000000003F0
FC000000001F8000000003F0
FC000000001F8000000003F0
FC000000001F8000000003F0
FC000000001F8000000003F0
FC000000001F8000000003F0
FC000000001F8000000003F0
FC000000001F8000000003F0
FC000000001F8000000003F0
FC000000001F8000000003F0
FC000000001F8000000003F0
FC000000001F8000000003F0
FC000000001F8000000003F0
FC000000001F8000000003F0
FC000000001F8000000003F0
FC000000001F8000000003F0
FC000000001F8000000003F0
FC000000001F8000000003F0
FC000000001F8000000003F0
FC000000001F8000000003F0
FC000000001F8000000003F0
FC000000001F8000000003F0
FC000000001F8000000003F0
FC000000001F8000000003F0
FC000000001F8000000003F0
FC000000001F8000000003F0
FC000000001F8000000003F0
FC000000001F8000000003F0
FC000000001F8000000003F0
FC000000001F8000000003F0
FC000000001F8000000003F0
FC000000001F8000000003F0
FC000000001F8000000003F0
FC000000001F8000000003F0
FC000000001F8000000003F0
FC000000001F8000000003F0
FC000000001F8000000003F0
FC000000001F8000000003F0
FC000000001F8000000003F0
FC000000001F8000000003F0
ENDCHAR
STARTCHAR 004E
ENCODING 78
SWIDTH 656 0
DWIDTH 63 0
BBX 55 64 1 0
BITMAP
003FFC0000007E
01FFFF0000007E
03FFFFC000007E
07FFFFE000007E
0FFFFFF000007E
1FFFFFF800007E
3FE007FC00007E
7F8001FE00007E
7F0000FF00007E
7E00007F80007E
FE00003FC0007E
FC00001FE0007E
FC00000FF0007E
FC000007F8007E
FC000003FC007E
FC000001FE007E
FC000000FF007E
FC0000007F807E
FC0000003FC07E
FC0000001FE07E
FC0000000FF07E
FC00000007F87E
FC00000003FC7E
FC00000001FE7E
FC00000000FF7E
FC000000007FFE
FC000000003FFE
FC000000001FFE
FC000000000FFE
FC0000000007FE
FC0000000003FE
FC0000000001FE
FC0000000000FE
FC00000000007E
FC00000000007E
FC00000000007E
FC00000000007E
FC00000000007E
FC00000000007E
FC00000000007E
FC00000000007E
FC00000000007E
FC00000000007E
FC00000000007E
FC00000000007E
FC00000000007E
FC00000000007E
FC00000000007E
FC00000000007E
FC00000000007E
FC00000000007E
FC00000000007E
FC00000000007E
FC00000000007E
FC00000000007E
FC00000000007E
FC00000000007E
FC00000000007E
FC00000000007E
FC00000000007E
FC00000000007E
FC00000000007E
FC00000000007E
FC00000000007E
ENDCHAR
STARTCHAR 004F
ENCODING 79
SWIDTH 583 0
DWIDTH 56 0
BBX 49 64 1 0
BITMAP
003FFFFFFE0000
01FFFFFFFFC000
03FFFFFFFFE000
07FFFFFFFFF000
0FFFFFFFFFF800
1FFFFFFFFFFC00
3FE0000003FE00
7F80000000FF00
7F000000007F00
7E000000003F00
FE000000003F80
FC000000001F80
FC000000001F80
FC000000001F80
FC000000001F80
FC000000001F80
FC000000001F80
FC000000001F80
FC000000001F80
FC000000001F80
FC000000001F80
FC000000001F80
FC000000001F80
FC000000001F80
FC000000001F80
FC000000001F80
FC000000001F80
FC000000001F80
FC000000001F80
FC000000001F80
FC000000001F80
FC000000001F80
FC000000001F80
FC000000001F80
FC000000001F80
FC000000001F80
FC000000001F80
FC000000001F80
FC000000001F80
FC000000001F80
FC000000001F80
FC000000001F80
FC000000001F80
FC000000001F80
FC000000001F80
FC000000001F80
FC000000001F80
FC000000001F80
FC000000001F80
FC000000001F80
FC000000001F80
FC000000001F80
FC000000001F80
FE000000003F80
7E000000003F00
7F000000007F00
7F80000000FF00
3FE0000003FE00
1FFFFFFFFFFC00
0FFFFFFFFFF800
07FFFFFFFFF000
03FFFFFFFFE000
01FFFFFFFFC000
003FFFFFFE0000
ENDCHAR
STARTCHAR 0050
ENCODING 80
SWIDTH 583 0
DWIDTH 56 0
BBX 49 64 1 0
BITMAP
003FFFFFFE0000
01FFFFFFFFC000
03FFFFFFFFE000
07FFFFFFFFF000
0FFFFFFFFFF800
1FFFFFFFFFFC00
3FE0000003FE00
7F80000000FF00
7F000000007F00
7E000000003F00
FE000000003F80
FC000000001F80
FC000000001F80
FC000000001F80
FC000000001F80
FC000000001F80
FC000000001F80
FC000000001F80
FC000000001F80
FC000000001F80
FC000000001F80
FC000000001F80
FC000000001F80
FC000000001F80
FC000000001F80
FC000000001F80
FC000000001F80
FC000000001F80
FC000000001F80
FC000000001F80
FC000000001F80
FC000000001F80
FC000000003F80
FC000000007F00
FC00000000FF00
FC00000001FE00
FFFFFFFFFFFE00
FFFFFFFFFFFC00
FFFFFFFFFFF800
FFFFFFFFFFF000
FFFFFFFFFFC000
FFFFFFFFFF8000
FFFFFFFFE00000
FC000000000000
FC000000000000
FC000000000000
FC000000000000
FC000000000000
FC000000000000
FC000000000000
FC000000000000
FC000000000000
FC000000000000
FC000000000000
FC000000000000
FC000000000000
FC000000000000
FC000000000000
FC000000000000
FC000000000000
FC000000000000
FC000000000000
FC000000000000
FC000000000000
ENDCHAR
STARTCHAR 0051
ENCODING 81
SWIDTH 583 0
DWIDTH 56 0
BBX 49 71 1 -7
BITMAP
003FFFFFFE0000
00FFFFFFFFC000
03FFFFFFFFE000
07FFFFFFFFF800
0FFFFFFFFFFC00
1FFFFFFFFFFC00
3FE0000003FE00
7F80000000FF00
7F000000007F00
7E000000003F80
FE000000003F80
FC000000001F80
FC000000001F80
FC000000001F80
FC000000001F80
FC000000001F80
FC000000001F80
FC000000001F80
FC000000001F80
FC000000001F80
FC000000001F80
FC000000001F80
FC000000001F80
FC000000001F80
FC000000001F80
FC000000001F80
FC000000001F80
FC000000001F80
FC000000001F80
FC000000001F80
FC000000001F80
FC000000001F80
FC000000001F80
FC000000001F80
FC000000001F80
FC000000001F80
FC000000001F80
FC000000001F80
FC000000001F80
FC000000001F80
FC000000001F80
FC000000001F80
FC000000001F80
FC000000001F80
FC000000001F80
FC000000001F80
FC000000001F80
FC000000001F80
FC000000001F80
FC000000001F80
FC000000001F80
FC000000001F80
FC000000001F80
FE000000003F80
7E000000003F80
7F000000007F00
7F80000000FF00
3FE0000003FE00
1FFFF87FFFFC00
0FFFF9FFFFFC00
07FFFFFFFFF800
03FFFFFFFFE000
01FFFFFFFFC000
003FFFFFFE0000
00007FC0000000
0000FF00000000
0001FE00000000
0001FC00000000
0000F800000000
00007000000000
00002000000000
ENDCHAR
STARTCHAR 0052
ENCODING 82
SWIDTH 583 0
DWIDTH 56 0
BBX 49 64 1 0
BITMAP
003FFFFFFE0000
01FFFFFFFFC000
03FFFFFFFFE000
07FFFFFFFFF000
0FFFFFFFFFF800
1FFFFFFFFFFC00
3FE0000003FE00
7F80000000FF00
7F000000007F00
7E000000003F00
FE000000003F80
FC000000001F80
FC000000001F80
FC000000001F80
FC000000001F80
FC000000001F80
FC000000001F80
FC000000001F80
FC000000001F80
FC000000001F80
FC000000001F80
FC000000001F80
FC000000001F80
FC000000003F80
FC000000003F00
FC000000007F00
FC00000000FF00
FC00000007FE00
FFFFFFFFFFFC00
FFFFFFFFFFF800
FFFFFFFFFFF000
FFFFFFFFFFE000
FFFFFFFFFF8000
FFFFFFFFFC0000
FC0007FF800000
FC0001FFC00000
FC0000FFF00000
FC00003FF80000
FC00001FFE0000
FC000007FF8000
FC000001FFC000
FC000000FFF000
FC0000003FF800
FC0000001FFC00
FC00000007FE00
FC00000001FE00
FC00000000FF00
FC000000007F00
FC000000003F80
FC000000003F80
FC000000001F80
FC000000001F80
FC000000001F80
FC000000001F80
FC000000001F80
FC000000001F80
FC000000001F80
FC000000001F80
FC000000001F80
FC000000001F80
FC000000001F80
FC000000001F80
FC000000001F80
FC000000001F80
ENDCHAR
STARTCHAR 0053
ENCODING 83
SWIDTH 583 0
DWIDTH 56 0
BBX 49 64 1 0
BITMAP
003FFFFFFE0000
01FFFFFFFFC000
03FFFFFFFFE000
07FFFFFFFFF000
0FFFFFFFFFF800
1FFFFFFFFFFC00
3FE0000003FE00
7F80000000FF00
7F000000007F00
7E000000003F00
FE000000003F80
FC000000001F80
FC000000001F80
FC000000001F80
FC000000001F80
FC000000001F80
FC000000001F80
FC000000000000
FC000000000000
FE000000000000
7E000000000000
7F000000000000
3FC00000000000
3FF00000000000
1FFC0000000000
0FFF8000000000
07FFE000000000
03FFFC00000000
00FFFF00000000
003FFFC0000000
0007FFF8000000
0001FFFE000000
00003FFFC00000
00000FFFF00000
000001FFFE0000
0000007FFF8000
0000001FFFE000
00000003FFF000
00000000FFF800
000000001FFC00
0000000007FE00
0000000001FE00
00000000007F00
00000000003F00
00000000003F80
00000000001F80
00000000001F80
FC000000001F80
FC000000001F80
FC000000001F80
FC000000001F80
FC000000001F80
FC000000001F80
FE000000003F80
7E000000003F00
7F000000007F00
7F80000000FF00
3FE0000003FE00
1FFFFFFFFFFC00
0FFFFFFFFFF800
07FFFFFFFFF000
03FFFFFFFFE000
01FFFFFFFFC000
003FFFFFFE0000
ENDCHAR
STARTCHAR 0054
ENCODING 84
SWIDTH 572 0
DWIDTH 55 0
BBX 49 64 0 0
BITMAP
FFFFFFFFFFFF80
FFFFFFFFFFFF80
FFFFFFFFFFFF80
FFFFFFFFFFFF80
FFFFFFFFFFFF80
FFFFFFFFFFFF80
000007F0000000
000007F0000000
000007F0000000
000007F0000000
000007F0000000
000007F0000000
000007F0000000
000007F0000000
000007F0000000
000007F0000000
000007F0000000
000007F0000000
000007F0000000
000007F0000000
000007F0000000
000007F0000000
000007F0000000
000007F0000000
000007F0000000
000007F0000000
000007F0000000
000007F0000000
000007F0000000
000007F0000000
000007F0000000
000007F0000000
000007F0000000
000007F0000000
000007F0000000
000007F0000000
000007F0000000
000007F0000000
000007F0000000
000007F0000000
000007F0000000
000007F0000000
000007F0000000
000007F0000000
000007F0000000
000007F0000000
000007F0000000
000007F0000000
000007F0000000
000007F0000000
000007F0000000
000007F0000000
000007F0000000
000007F0000000
000007F0000000
000007F0000000
000007F0000000
000007F0000000
000007F0000000
000007F0000000
000007F0000000
000007F0000000
000007F0000000
000007F0000000
ENDCHAR
STARTCHAR 0055
ENCODING 85
SWIDTH 583 0
DWIDTH 56 0
BBX 49 64 1 0
BITMAP
FC000000001F80
FC000000001F80
FC000000001F80
FC000000001F80
FC000000001F80
FC000000001F80
FC000000001F80
FC000000001F80
FC000000001F80
FC000000001F80
FC000000001F80
FC000000001F80
FC000000001F80
FC000000001F80
FC000000001F80
FC000000001F80
FC000000001F80
FC000000001F80
FC000000001F80
FC000000001F80
FC000000001F80
FC000000001F80
FC000000001F80
FC000000001F80
FC000000001F80
FC000000001F80
FC000000001F80
FC000000001F80
FC000000001F80
FC000000001F80
FC000000001F80
FC000000001F80
FC000000001F80
FC000000001F80
FC000000001F80
FC000000001F80
FC000000001F80
FC000000001F80
FC000000001F80
FC000000001F80
FC000000001F80
FC000000001F80
FC000000001F80
FC000000001F80
FC000000001F80
FC000000001F80
FC000000001F80
FC000000001F80
FC000000001F80
FC000000001F80
FC000000001F80
FC000000001F80
FC000000001F80
FE000000003F80
7E000000003F00
7F000000007F00
7F80000000FF00
3FE0000003FE00
1FFFFFFFFFFC00
0FFFFFFFFFF800
07FFFFFFFFF000
03FFFFFFFFE000
01FFFFFFFFC000
003FFFFFFE0000
ENDCHAR
STARTCHAR 0056
ENCODING 86
SWIDTH 677 0
DWIDTH 65 0
BBX 58 65 1 -1
BITMAP
FC00000000000FC0
FC00000000000FC0
FC00000000000FC0
FC00000000000FC0
FC00000000000FC0
FC00000000000FC0
FC00000000000FC0
FC00000000000FC0
FC00000000000FC0
FC00000000000FC0
FC00000000000FC0
FC00000000000FC0
FC00000000000FC0
FC00000000000FC0
FC00000000000FC0
FC00000000000FC0
FC00000000000FC0
FC00000000000FC0
FC00000000000FC0
FC00000000000FC0
FC00000000000FC0
FC00000000000FC0
FC00000000000FC0
FC00000000000FC0
FC00000000000FC0
FC00000000000FC0
FC00000000000FC0
FC00000000000FC0
FC00000000000FC0
FC00000000000FC0
FC00000000000FC0
FC00000000000FC0
FC00000000000FC0
FC00000000000FC0
FC00000000000FC0
FC00000000000FC0
FC00000000000FC0
FC00000000000FC0
FC00000000000FC0
FC00000000000FC0
FC00000000000FC0
FC00000000001FC0
FE00000000001F80
FE00000000001F80
7F00000000003F80
7F80000000007F00
3FC000000001FF00
3FF000000003FE00
1FF80000000FFE00
0FFE0000001FFC00
07FF0000007FF000
01FFC00000FFE000
00FFE00003FF8000
003FF80007FF0000
001FFC001FFC0000
0007FF003FF80000
0003FFC0FFE00000
0000FFE1FFC00000
00007FFFFF000000
00001FFFFE000000
00000FFFF8000000
000003FFF0000000
000001FFC0000000
0000007F80000000
0000001E00000000
ENDCHAR
STARTCHAR 0057
ENCODING 87
SWIDTH 1208 0
DWIDTH 116 0
BBX 109 65 1 -1
BITMAP
FC00000000000FC00000000001F8
FC00000000000FC00000000001F8
FC00000000000FC00000000001F8
FC00000000000FC00000000001F8
FC00000000000FC00000000001F8
FC00000000000FC00000000001F8
FC00000000000FC00000000001F8
FC00000000000FC00000000001F8
FC00000000000FC00000000001F8
FC00000000000FC00000000001F8
FC00000000000FC00000000001F8
FC00000000000FC00000000001F8
FC00000000000FC00000000001F8
FC00000000000FC00000000001F8
FC00000000000FC00000000001F8
FC00000000000FC00000000001F8
FC00000000000FC00000000001F8
FC00000000000FC00000000001F8
FC00000000000FC00000000001F8
FC00000000000FC00000000001F8
FC00000000000FC00000000001F8
FC00000000000FC00000000001F8
FC00000000000FC00000000001F8
FC00000000000FC00000000001F8
FC00000000000FC00000000001F8
FC00000000000FC00000000001F8
FC00000000000FC00000000001F8
FC00000000000FC00000000001F8
FC00000000000FC00000000001F8
FC00000000000FC00000000001F8
FC00000000000FC00000000001F8
FC00000000000FC00000000001F8
FC00000000000FC00000000001F8
FC00000000000FC00000000001F8
FC00000000000FC00000000001F8
FC00000000000FC00000000001F8
FC00000000000FC00000000001F8
FC00000000000FC00000000001F8
FC00000000000FC00000000001F8
FC00000000000FC00000000001F8
FC00000000001FC00000000001F8
FC00000000001FC00000000001F8
FE00000000001FC00000000001F8
FE00000000001FE00000000003F8
7F00000000003FE00000000007F0
7F80000000007FF0000000000FF0
3FC000000001FFFC000000001FE0
3FF000000003FFFE000000007FE0
1FF80000000FFDFF80000000FFC0
0FFE0000001FF8FFC0000003FF80
07FF0000007FF07FF0000007FF00
01FFC00000FFE03FF800001FFC00
00FFE00003FF800FFE00003FF800
003FF80007FF0003FF8000FFE000
001FFE001FFC0001FFC001FFC000
0007FF003FF80000FFF007FF0000
0003FFC0FFE000003FF80FFE0000
0000FFE1FFC000001FFE3FF80000
00007FFFFF00000007FF7FF00000
00001FFFFE00000001FFFFC00000
00000FFFF800000000FFFF800000
000003FFF0000000003FFE000000
000000FFC0000000001FFC000000
0000007F800000000007F0000000
0000001E000000000003E0000000
ENDCHAR
STARTCHAR 0058
ENCODING 88
SWIDTH 677 0
DWIDTH 65 0
BBX 58 64 1 0
BITMAP
FC00000000000FC0
FC00000000000FC0
FC00000000000FC0
FC00000000000FC0
FC00000000000FC0
FC00000000000FC0
FC00000000000FC0
FC00000000000FC0
FC00000000001FC0
FC00000000001FC0
FE00000000001F80
7E00000000003F80
7F00000000003F80
7F8000000000FF00
3FE000000001FF00
1FF000000007FE00
1FFC0000000FFC00
0FFF0000003FF800
03FF800000FFF000
01FFE00001FFC000
007FF80007FF8000
001FFC001FFE0000
000FFF003FFC0000
0003FF80FFF00000
0001FFE3FFC00000
00007FFFFF800000
00001FFFFE000000
00000FFFF8000000
000003FFF0000000
000007FFF0000000
00000FFFFC000000
00003FFFFF000000
0000FFF3FF800000
0001FFC1FFE00000
0007FF807FF80000
001FFE001FFC0000
003FF8000FFF0000
00FFF00003FF8000
01FFC00001FFE000
07FF0000007FF000
0FFE0000001FFC00
1FF80000000FFE00
3FF000000003FE00
3FC000000000FF00
7F80000000007F80
7F00000000003F80
FE00000000001F80
FC00000000001F80
FC00000000001FC0
FC00000000001FC0
FC00000000000FC0
FC00000000000FC0
FC00000000000FC0
FC00000000000FC0
FC00000000000FC0
FC00000000000FC0
FC00000000000FC0
FC00000000000FC0
FC00000000000FC0
FC00000000000FC0
FC00000000000FC0
FC00000000000FC0
FC00000000000FC0
FC00000000000FC0
ENDCHAR
STARTCHAR 0059
ENCODING 89
SWIDTH 583 0
DWIDTH 56 0
BBX 49 64 1 0
BITMAP
FC000000001F80
FC000000001F80
FC000000001F80
FC000000001F80
FC000000001F80
FC000000001F80
FC000000001F80
FC000000001F80
FC000000001F80
FC000000001F80
FC000000001F80
FC000000001F80
FC000000001F80
FC000000001F80
FC000000001F80
FC000000001F80
FC000000001F80
FC000000001F80
FC000000001F80
FC000000001F80
FC000000001F80
FC000000001F80
FC000000001F80
FC000000001F80
FC000000001F80
FC000000001F80
FC000000001F80
FC000000001F80
FC000000001F80
FC000000001F80
FC000000001F80
FE000000001F80
FE000000001F80
7F000000001F80
7F800000001F80
3FC00000001F80
3FFFFFFFFFFF80
1FFFFFFFFFFF80
0FFFFFFFFFFF80
07FFFFFFFFFF80
01FFFFFFFFFF80
00FFFFFFFFFF80
00000000001F80
00000000001F80
00000000001F80
00000000001F80
00000000001F80
00000000001F80
00000000001F80
00000000001F80
00000000001F80
00000000001F80
00000000001F80
00000000003F80
00000000003F00
00000000007F00
0000000000FF00
0000000003FE00
0FFFFFFFFFFC00
0FFFFFFFFFF800
0FFFFFFFFFF000
0FFFFFFFFFE000
0FFFFFFFFFC000
0FFFFFFFFE0000
ENDCHAR
STARTCHAR 005A
ENCODING 90
SWIDTH 583 0
DWIDTH 56 0
BBX 49 64 1 0
BITMAP
FFFFFFFFFE0000
FFFFFFFFFFC000
FFFFFFFFFFE000
FFFFFFFFFFF000
FFFFFFFFFFF800
FFFFFFFFFFFC00
0000000003FE00
0000000000FF00
00000000007F00
00000000003F00
00000000003F80
00000000001F80
00000000001F80
00000000001F80
00000000001F80
00000000001F80
00000000001F80
00000000003F80
00000000007F00
0000000000FF00
0000000001FF00
0000000007FE00
000000001FFC00
000000007FF800
00000000FFF000
00000003FFC000
0000000FFF8000
0000003FFE0000
000000FFF80000
000001FFE00000
000007FF800000
00001FFF000000
00007FFC000000
0001FFF0000000
0003FFC0000000
000FFF00000000
003FFE00000000
00FFF800000000
01FFE000000000
07FF8000000000
0FFE0000000000
1FFC0000000000
3FF00000000000
3FC00000000000
7F800000000000
7F000000000000
FE000000000000
FC000000000000
FC000000000000
FC000000000000
FC000000000000
FC000000000000
FC000000000000
FE000000000000
7E000000000000
7F000000000000
7F800000000000
3FE00000000000
1FFFFFFFFFFF80
0FFFFFFFFFFF80
07FFFFFFFFFF80
03FFFFFFFFFF80
01FFFFFFFFFF80
003FFFFFFFFF80
ENDCHAR
STARTCHAR 005B
ENCODING 91
SWIDTH 500 0
DWIDTH 48 0
BBX 0 0 0 0
BITMAP
ENDCHAR
STARTCHAR 005C
ENCODING 92
SWIDTH 375 0
DWIDTH 36 0
BBX 33 66 0 -2
BITMAP
0C00000000
7C00000000
FE00000000
7E00000000
7F00000000
7F00000000
3F00000000
3F80000000
1F80000000
1FC0000000
0FC0000000
0FE0000000
0FE0000000
07E0000000
07F0000000
03F0000000
03F8000000
01F8000000
01FC000000
01FC000000
00FC000000
00FE000000
007E000000
007F000000
003F000000
003F800000
001F800000
001FC00000
001FC00000
000FC00000
000FE00000
0007E00000
0007F00000
0003F00000
0003F80000
0003F80000
0001F80000
0001FC0000
0000FC0000
0000FE0000
00007E0000
00007F0000
00007F0000
00003F0000
00003F8000
00001F8000
00001FC000
00000FC000
00000FE000
000007E000
000007F000
000007F000
000003F000
000003F800
000001F800
000001FC00
000000FC00
000000FE00
000000FE00
0000007E00
0000007F00
0000003F00
0000003F80
0000001F80
0000001F00
0000001800
ENDCHAR
STARTCHAR 005D
ENCODING 93
SWIDTH 500 0
DWIDTH 48 0
BBX 0 0 0 0
BITMAP
ENDCHAR
STARTCHAR 005E
ENCODING 94
SWIDTH 666 0
DWIDTH 64 0
BBX 0 0 0 0
BITMAP
ENDCHAR
STARTCHAR 005F
ENCODING 95
SWIDTH 406 0
DWIDTH 39 0
BBX 31 6 1 0
BITMAP
FFFFFFFE
FFFFFFFE
FFFFFFFE
FFFFFFFE
FFFFFFFE
FFFFFFFE
ENDCHAR
STARTCHAR 0060
ENCODING 96
SWIDTH 500 0
DWIDTH 48 0
BBX 0 0 0 0
BITMAP
ENDCHAR
STARTCHAR 0061
ENCODING 97
SWIDTH 583 0
DWIDTH 56 0
BBX 49 65 1 -1
BITMAP
003FFFFFFE0000
01FFFFFFFF8000
03FFFFFFFFE000
07FFFFFFFFF000
0FFFFFFFFFF800
1FFFFFFFFFFC00
3FE0000003FE00
7F80000000FF00
7F000000007F00
7E000000003F00
FE000000003F80
FC000000001F80
FC000000001F80
FC000000001F80
FC000000001F80
FC000000001F80
FC000000001F80
FC000000001F80
FC000000001F80
FC000000001F80
FC000000001F80
FC000000001F80
FC000000001F80
FC000000001F80
FC000000001F80
FC000000001F80
FC000000001F80
FC000000001F80
FC000000001F80
FC000000001F80
FC000000001F80
FFFE0000001F80
FFFFC000001F80
FFFFF000001F80
FFFFF800001F80
FFFFFC00001F80
FFFFFE00001F80
FC03FF00001F80
FC00FF80001F80
FC007FC0001F80
FC003FE0001F80
FC001FE0001F80
FC000FF0001F80
FC0007F8001F80
FC0003FC001F80
FC0001FE001F80
FC0000FF001F80
FC00007F801F80
FC00003FC01F80
FC00001FE01F80
FC00000FF01F80
FC000007F81F80
FC000003FC1F80
FC000001FE1F80
FC000000FF1F80
FC000000FF9F80
FC0000007FDF80
FC0000003FFF80
FC0000001FFF80
FC0000000FFF80
FC00000007FF80
FC00000003FF80
FC00000001FF00
FC00000000FE00
00000000003C00
ENDCHAR
STARTCHAR 0062
ENCODING 98
SWIDTH 583 0
DWIDTH 56 0
BBX 49 64 1 0
BITMAP
003FFFFFFE0000
01FFFFFFFFC000
03FFFFFFFFE000
07FFFFFFFFF000
0FFFFFFFFFF800
1FFFFFFFFFFC00
3FE0000003FE00
7F80000000FF00
7F000000007F00
7E000000003F00
FE000000003F80
FC000000001F80
FC000000001F80
FC000000001F80
FC000000001F80
FC000000001F80
FC000000001F80
FC000000001F80
FC000000001F80
FC000000001F80
FC000000001F80
FC000000001F80
FC000000001F80
FC000000003F80
FC000000003F00
FC000000007F00
FC00000000FF00
FC00000007FE00
FFFFFFFFFFFC00
FFFFFFFFFFF800
FFFFFFFFFFF000
FFFFFFFFFFF000
FFFFFFFFFFF800
FFFFFFFFFFFC00
FC00000003FE00
FC00000000FF00
FC000000007F00
FC000000003F00
FC000000003F80
FC000000001F80
FC000000001F80
FC000000001F80
FC000000001F80
FC000000001F80
FC000000001F80
FC000000001F80
FC000000001F80
FC000000001F80
FC000000001F80
FC000000001F80
FC000000001F80
FC000000001F80
FC000000001F80
FC000000003F80
FC000000003F00
FC000000007F00
FC00000000FF00
FC00000003FE00
FFFFFFFFFFFC00
FFFFFFFFFFF800
FFFFFFFFFFF000
FFFFFFFFFFE000
FFFFFFFFFFC000
FFFFFFFFFE0000
ENDCHAR
STARTCHAR 0063
ENCODING 99
SWIDTH 541 0
DWIDTH 52 0
BBX 45 64 1 0
BITMAP
003FFFFFFFF8
01FFFFFFFFF8
03FFFFFFFFF8
07FFFFFFFFF8
0FFFFFFFFFF8
1FFFFFFFFFF8
3FE000000000
7F8000000000
7F0000000000
7E0000000000
FE0000000000
FC0000000000
FC0000000000
FC0000000000
FC0000000000
FC0000000000
FC0000000000
FC0000000000
FC0000000000
FC0000000000
FC0000000000
FC0000000000
FC0000000000
FC0000000000
FC0000000000
FC0000000000
FC0000000000
FC0000000000
FC0000000000
FC0000000000
FC0000000000
FC0000000000
FC0000000000
FC0000000000
FC0000000000
FC0000000000
FC0000000000
FC0000000000
FC0000000000
FC0000000000
FC0000000000
FC0000000000
FC0000000000
FC0000000000
FC0000000000
FC0000000000
FC0000000000
FC0000000000
FC0000000000
FC0000000000
FC0000000000
FC0000000000
FC0000000000
FE0000000000
7E0000000000
7F0000000000
7F8000000000
3FE000000000
1FFFFFFFFFF8
0FFFFFFFFFF8
07FFFFFFFFF8
03FFFFFFFFF8
01FFFFFFFFF8
003FFFFFFFF8
ENDCHAR
STARTCHAR 0064
ENCODING 100
SWIDTH 583 0
DWIDTH 56 0
BBX 49 64 1 0
BITMAP
FFFFFFFFFE0000
FFFFFFFFFFC000
FFFFFFFFFFE000
FFFFFFFFFFF000
FFFFFFFFFFF800
FFFFFFFFFFFC00
FC00000003FE00
FC00000000FF00
FC000000007F00
FC000000003F00
FC000000003F80
FC000000001F80
FC000000001F80
FC000000001F80
FC000000001F80
FC000000001F80
FC000000001F80
FC000000001F80
FC000000001F80
FC000000001F80
FC000000001F80
FC000000001F80
FC000000001F80
FC000000001F80
FC000000001F80
FC000000001F80
FC000000001F80
FC000000001F80
FC000000001F80
FC000000001F80
FC000000001F80
FC000000001F80
FC000000001F80
FC000000001F80
FC000000001F80
FC000000001F80
FC000000001F80
FC000000001F80
FC000000001F80
FC000000001F80
FC000000001F80
FC000000001F80
FC000000001F80
FC000000001F80
FC000000001F80
FC000000001F80
FC000000001F80
FC000000001F80
FC000000001F80
FC000000001F80
FC000000001F80
FC000000001F80
FC000000001F80
FC000000003F80
FC000000003F00
FC000000007F00
FC00000000FF00
FC00000003FE00
FFFFFFFFFFFC00
FFFFFFFFFFF800
FFFFFFFFFFF000
FFFFFFFFFFE000
FFFFFFFFFFC000
FFFFFFFFFE0000
ENDCHAR
STARTCHAR 0065
ENCODING 101
SWIDTH 541 0
DWIDTH 52 0
BBX 45 64 1 0
BITMAP
003FFFFFFFF8
01FFFFFFFFF8
03FFFFFFFFF8
07FFFFFFFFF8
0FFFFFFFFFF8
1FFFFFFFFFF8
3FE000000000
7F8000000000
7F0000000000
7E0000000000
FE0000000000
FC0000000000
FC0000000000
FC0000000000
FC0000000000
FC0000000000
FC0000000000
FC0000000000
FC0000000000
FC0000000000
FC0000000000
FC0000000000
FC0000000000
FC0000000000
FC0000000000
FC0000000000
FC0000000000
FC0000000000
FFFFFFFFFFF8
FFFFFFFFFFF8
FFFFFFFFFFF8
FFFFFFFFFFF8
FFFFFFFFFFF8
FFFFFFFFFFF8
FC0000000000
FC0000000000
FC0000000000
FC0000000000
FC0000000000
FC0000000000
FC0000000000
FC0000000000
FC0000000000
FC0000000000
FC0000000000
FC0000000000
FC0000000000
FC0000000000
FC0000000000
FC0000000000
FC0000000000
FC0000000000
FC0000000000
FE0000000000
7E0000000000
7F0000000000
7F8000000000
3FE000000000
1FFFFFFFFFF8
0FFFFFFFFFF8
07FFFFFFFFF8
03FFFFFFFFF8
01FFFFFFFFF8
003FFFFFFFF8
ENDCHAR
STARTCHAR 0066
ENCODING 102
SWIDTH 541 0
DWIDTH 52 0
BBX 45 64 1 0
BITMAP
003FFFFFFFF8
01FFFFFFFFF8
03FFFFFFFFF8
07FFFFFFFFF8
0FFFFFFFFFF8
1FFFFFFFFFF8
3FE000000000
7F8000000000
7F0000000000
7E0000000000
FE0000000000
FC0000000000
FC0000000000
FC0000000000
FC0000000000
FC0000000000
FC0000000000
FC0000000000
FC0000000000
FC0000000000
FC0000000000
FC0000000000
FC0000000000
FC0000000000
FC0000000000
FC0000000000
FC0000000000
FC0000000000
FFFFFFFFFFF8
FFFFFFFFFFF8
FFFFFFFFFFF8
FFFFFFFFFFF8
FFFFFFFFFFF8
FFFFFFFFFFF8
FC0000000000
FC0000000000
FC0000000000
FC0000000000
FC0000000000
FC0000000000
FC0000000000
FC0000000000
FC0000000000
FC0000000000
FC0000000000
FC0000000000
FC0000000000
FC0000000000
FC0000000000
FC0000000000
FC0000000000
FC0000000000
FC0000000000
FC0000000000
FC0000000000
FC0000000000
FC0000000000
FC0000000000
FC0000000000
FC0000000000
FC0000000000
FC0000000000
FC0000000000
FC0000000000
ENDCHAR
STARTCHAR 0067
ENCODING 103
SWIDTH 583 0
DWIDTH 56 0
BBX 49 64 1 0
BITMAP
003FFFFFFFF800
01FFFFFFFFF800
03FFFFFFFFF800
07FFFFFFFFF800
0FFFFFFFFFF800
1FFFFFFFFFF800
3FE00000000000
7F800000000000
7F000000000000
7E000000000000
FE000000000000
FC000000000000
FC000000000000
FC000000000000
FC000000000000
FC000000000000
FC000000000000
FC000000000000
FC000000000000
FC000000000000
FC000000000000
FC000000000000
FC000000000000
FC000000000000
FC000000000000
FC000000000000
FC000000000000
FC000000000000
FFFFFFFFFF0000
FFFFFFFFFFC000
FFFFFFFFFFE000
FFFFFFFFFFF800
FFFFFFFFFFFC00
FFFFFFFFFFFC00
FC00000003FE00
FC00000000FF00
FC000000007F00
FC000000003F00
FC000000003F80
FC000000001F80
FC000000001F80
FC000000001F80
FC000000001F80
FC000000001F80
FC000000001F80
FC000000001F80
FC000000001F80
FC000000001F80
FC000000001F80
FC000000001F80
FC000000001F80
FC000000001F80
FC000000001F80
FE000000003F80
7E000000003F00
7F000000007F00
7F80000000FF00
3FE0000003FE00
1FFFFFFFFFFC00
0FFFFFFFFFF800
07FFFFFFFFF000
03FFFFFFFFE000
01FFFFFFFFC000
003FFFFFFE0000
ENDCHAR
STARTCHAR 0068
ENCODING 104
SWIDTH 583 0
DWIDTH 56 0
BBX 49 64 1 0
BITMAP
FC000000001F80
FC000000001F80
FC000000001F80
FC000000001F80
FC000000001F80
FC000000001F80
FC000000001F80
FC000000001F80
FC000000001F80
FC000000001F80
FC000000001F80
FC000000001F80
FC000000001F80
FC000000001F80
FC000000001F80
FC000000001F80
FC000000001F80
FC000000001F80
FC000000001F80
FC000000001F80
FC000000001F80
FC000000001F80
FC000000001F80
FC000000001F80
FC000000001F80
FC000000001F80
FC000000001F80
FC000000001F80
FFFFFFFFFFFF80
FFFFFFFFFFFF80
FFFFFFFFFFFF80
FFFFFFFFFFFF80
FFFFFFFFFFFF80
FFFFFFFFFFFF80
FC000000001F80
FC000000001F80
FC000000001F80
FC000000001F80
FC000000001F80
FC000000001F80
FC000000001F80
FC000000001F80
FC000000001F80
FC000000001F80
FC000000001F80
FC000000001F80
FC000000001F80
FC000000001F80
FC000000001F80
FC000000001F80
FC000000001F80
FC000000001F80
FC000000001F80
FC000000001F80
FC000000001F80
FC000000001F80
FC000000001F80
FC000000001F80
FC000000001F80
FC000000001F80
FC000000001F80
FC000000001F80
FC000000001F80
FC000000001F80
ENDCHAR
STARTCHAR 0069
ENCODING 105
SWIDTH 135 0
DWIDTH 13 0
BBX 6 64 1 0
BITMAP
FC
FC
FC
FC
FC
FC
FC
FC
FC
FC
FC
FC
FC
FC
FC
FC
FC
FC
FC
FC
FC
FC
FC
FC
FC
FC
FC
FC
FC
FC
FC
FC
FC
FC
FC
FC
FC
FC
FC
FC
FC
FC
FC
FC
FC
FC
FC
FC
FC
FC
FC
FC
FC
FC
FC
FC
FC
FC
FC
FC
FC
FC
FC
FC
ENDCHAR
STARTCHAR 006A
ENCODING 106
SWIDTH 531 0
DWIDTH 51 0
BBX 45 64 0 0
BITMAP
0000000001F8
0000000001F8
0000000001F8
0000000001F8
0000000001F8
0000000001F8
0000000001F8
0000000001F8
0000000001F8
0000000001F8
0000000001F8
0000000001F8
0000000001F8
0000000001F8
0000000001F8
0000000001F8
0000000001F8
0000000001F8
0000000001F8
0000000001F8
0000000001F8
0000000001F8
0000000001F8
0000000001F8
0000000001F8
0000000001F8
0000000001F8
0000000001F8
0000000001F8
0000000001F8
0000000001F8
0000000001F8
0000000001F8
0000000001F8
0000000001F8
0000000001F8
0000000001F8
0000000001F8
0000000001F8
0000000001F8
0000000001F8
0000000001F8
0000000001F8
0000000001F8
0000000001F8
0000000001F8
0000000001F8
0000000001F8
0000000001F8
0000000001F8
0000000001F8
0000000001F8
0000000003F8
0000000003F0
0000000007F0
0000000007F0
000000001FE0
000000003FE0
FFFFFFFFFFC0
FFFFFFFFFF80
FFFFFFFFFF00
FFFFFFFFFE00
FFFFFFFFF800
FFFFFFFFE000
ENDCHAR
STARTCHAR 006B
ENCODING 107
SWIDTH 593 0
DWIDTH 57 0
BBX 50 64 1 0
BITMAP
FC000000001F00
FC000000007F00
FC00000000FF00
FC00000001FF00
FC00000003FF00
FC00000007FF00
FC0000000FF800
FC0000001FF000
FC0000003FE000
FC0000007FC000
FC000000FF8000
FC000001FF0000
FC000003FE0000
FC000007FC0000
FC00000FF80000
FC00001FF00000
FC00003FE00000
FC00007FC00000
FC0000FF800000
FC0001FF000000
FC0003FE000000
FC0007FC000000
FC000FF8000000
FC001FF0000000
FC003FE0000000
FC007FC0000000
FC00FF80000000
FC03FF00000000
FFFFFE00000000
FFFFFC00000000
FFFFF800000000
FFFFF800000000
FFFFFC00000000
FFFFFE00000000
FC01FF00000000
FC00FF80000000
FC007FC0000000
FC003FE0000000
FC001FF0000000
FC000FF8000000
FC0007FC000000
FC0003FE000000
FC0001FF000000
FC0000FF800000
FC00007FC00000
FC00003FE00000
FC00001FF00000
FC00000FF80000
FC000007FC0000
FC000003FE0000
FC000001FF0000
FC000000FF8000
FC0000007FC000
FC0000003FE000
FC0000001FF000
FC0000000FF800
FC00000007FC00
FC00000003FE00
FC00000001FFC0
FC00000000FFC0
FC000000007FC0
FC000000003FC0
FC000000001FC0
FC0000000007C0
ENDCHAR
STARTCHAR 006C
ENCODING 108
SWIDTH 531 0
DWIDTH 51 0
BBX 45 65 1 0
BITMAP
FC0000000000
FC0000000000
FC0000000000
FC0000000000
FC0000000000
FC0000000000
FC0000000000
FC0000000000
FC0000000000
FC0000000000
FC0000000000
FC0000000000
FC0000000000
FC0000000000
FC0000000000
FC0000000000
FC0000000000
FC0000000000
FC0000000000
FC0000000000
FC0000000000
FC0000000000
FC0000000000
FC0000000000
FC0000000000
FC0000000000
FC0000000000
FC0000000000
FC0000000000
FC0000000000
FC0000000000
FC0000000000
FC0000000000
FC0000000000
FC0000000000
FC0000000000
FC0000000000
FC0000000000
FC0000000000
FC0000000000
FC0000000000
FC0000000000
FC0000000000
FC0000000000
FC0000000000
FC0000000000
FC0000000000
FC0000000000
FC0000000000
FC0000000000
FC0000000000
FC0000000000
FC0000000000
FC0000000000
FE0000000000
7E0000000000
7F0000000000
7F8000000000
3FE000000000
1FFFFFFFFFF8
0FFFFFFFFFF8
07FFFFFFFFF8
03FFFFFFFFF8
01FFFFFFFFF8
003FFFFFFFF8
ENDCHAR
STARTCHAR 006D
ENCODING 109
SWIDTH 1031 0
DWIDTH 99 0
BBX 92 64 1 0
BITMAP
003FFFFFFE0007FFFFFFC000
01FFFFFFFFC03FFFFFFFF800
03FFFFFFFFE07FFFFFFFFC00
07FFFFFFFFF8FFFFFFFFFE00
0FFFFFFFFFFDFFFFFFFFFF00
1FFFFFFFFFFFFFFFFFFFFF80
3FE0000003FFFC0000007FC0
7F80000000FFF00000001FE0
7F000000007FE00000000FE0
7E000000003FC000000007E0
FE000000003FC000000007F0
FC000000001F8000000003F0
FC000000001F8000000003F0
FC000000001F8000000003F0
FC000000001F8000000003F0
FC000000001F8000000003F0
FC000000001F8000000003F0
FC000000001F8000000003F0
FC000000001F8000000003F0
FC000000001F8000000003F0
FC000000001F8000000003F0
FC000000001F8000000003F0
FC000000001F8000000003F0
FC000000001F8000000003F0
FC000000001F8000000003F0
FC000000001F8000000003F0
FC000000001F8000000003F0
FC000000001F8000000003F0
FC000000001F8000000003F0
FC000000001F8000000003F0
FC000000001F8000000003F0
FC000000001F8000000003F0
FC000000001F8000000003F0
FC000000001F8000000003F0
FC000000001F8000000003F0
FC000000001F8000000003F0
FC000000001F8000000003F0
FC000000001F8000000003F0
FC000000001F8000000003F0
FC000000001F8000000003F0
FC000000001F8000000003F0
FC000000001F8000000003F0
FC000000001F8000000003F0
FC000000001F8000000003F0
FC000000001F8000000003F0
FC000000001F8000000003F0
FC000000001F8000000003F0
FC000000001F8000000003F0
FC000000001F8000000003F0
FC000000001F8000000003F0
FC000000001F8000000003F0
FC000000001F8000000003F0
FC000000001F8000000003F0
FC000000001F8000000003F0
FC000000001F8000000003F0
FC000000001F8000000003F0
FC000000001F8000000003F0
FC000000001F8000000003F0
FC000000001F8000000003F0
FC000000001F8000000003F0
FC000000001F8000000003F0
FC000000001F8000000003F0
FC000000001F8000000003F0
FC000000001F8000000003F0
ENDCHAR
STARTCHAR 006E
ENCODING 110
SWIDTH 656 0
DWIDTH 63 0
BBX 55 64 1 0
BITMAP
003FFC0000007E
01FFFF0000007E
03FFFFC000007E
07FFFFE000007E
0FFFFFF000007E
1FFFFFF800007E
3FE007FC00007E
7F8001FE00007E
7F0000FF00007E
7E00007F80007E
FE00003FC0007E
FC00001FE0007E
FC00000FF0007E
FC000007F8007E
FC000003FC007E
FC000001FE007E
FC000000FF007E
FC0000007F807E
FC0000003FC07E
FC0000001FE07E
FC0000000FF07E
FC00000007F87E
FC00000003FC7E
FC00000001FE7E
FC00000000FF7E
FC000000007FFE
FC000000003FFE
FC000000001FFE
FC000000000FFE
FC0000000007FE
FC0000000003FE
FC0000000001FE
FC0000000000FE
FC00000000007E
FC00000000007E
FC00000000007E
FC00000000007E
FC00000000007E
FC00000000007E
FC00000000007E
FC00000000007E
FC00000000007E
FC00000000007E
FC00000000007E
FC00000000007E
FC00000000007E
FC00000000007E
FC00000000007E
FC00000000007E
FC00000000007E
FC00000000007E
FC00000000007E
FC00000000007E
FC00000000007E
FC00000000007E
FC00000000007E
FC00000000007E
FC00000000007E
FC00000000007E
FC00000000007E
FC00000000007E
FC00000000007E
FC00000000007E
FC00000000007E
ENDCHAR
STARTCHAR 006F
ENCODING 111
SWIDTH 583 0
DWIDTH 56 0
BBX 49 64 1 0
BITMAP
003FFFFFFE0000
01FFFFFFFFC000
03FFFFFFFFE000
07FFFFFFFFF000
0FFFFFFFFFF800
1FFFFFFFFFFC00
3FE0000003FE00
7F80000000FF00
7F000000007F00
7E000000003F00
FE000000003F80
FC000000001F80
FC000000001F80
FC000000001F80
FC000000001F80
FC000000001F80
FC000000001F80
FC000000001F80
FC000000001F80
FC000000001F80
FC000000001F80
FC000000001F80
FC000000001F80
FC000000001F80
FC000000001F80
FC000000001F80
FC000000001F80
FC000000001F80
FC000000001F80
FC000000001F80
FC000000001F80
FC000000001F80
FC000000001F80
FC000000001F80
FC000000001F80
FC000000001F80
FC000000001F80
FC000000001F80
FC000000001F80
FC000000001F80
FC000000001F80
FC000000001F80
FC000000001F80
FC000000001F80
FC000000001F80
FC000000001F80
FC000000001F80
FC000000001F80
FC000000001F80
FC000000001F80
FC000000001F80
FC000000001F80
FC000000001F80
FE000000003F80
7E000000003F00
7F000000007F00
7F80000000FF00
3FE0000003FE00
1FFFFFFFFFFC00
0FFFFFFFFFF800
07FFFFFFFFF000
03FFFFFFFFE000
01FFFFFFFFC000
003FFFFFFE0000
ENDCHAR
STARTCHAR 0070
ENCODING 112
SWIDTH 583 0
DWIDTH 56 0
BBX 49 64 1 0
BITMAP
003FFFFFFE0000
01FFFFFFFFC000
03FFFFFFFFE000
07FFFFFFFFF000
0FFFFFFFFFF800
1FFFFFFFFFFC00
3FE0000003FE00
7F80000000FF00
7F000000007F00
7E000000003F00
FE000000003F80
FC000000001F80
FC000000001F80
FC000000001F80
FC000000001F80
FC000000001F80
FC000000001F80
FC000000001F80
FC000000001F80
FC000000001F80
FC000000001F80
FC000000001F80
FC000000001F80
FC000000001F80
FC000000001F80
FC000000001F80
FC000000001F80
FC000000001F80
FC000000001F80
FC000000001F80
FC000000001F80
FC000000001F80
FC000000003F80
FC000000007F00
FC00000000FF00
FC00000001FE00
FFFFFFFFFFFE00
FFFFFFFFFFFC00
FFFFFFFFFFF800
FFFFFFFFFFF000
FFFFFFFFFFC000
FFFFFFFFFF8000
FFFFFFFFE00000
FC000000000000
FC000000000000
FC000000000000
FC000000000000
FC000000000000
FC000000000000
FC000000000000
FC000000000000
FC000000000000
FC000000000000
FC000000000000
FC000000000000
FC000000000000
FC000000000000
FC000000000000
FC000000000000
FC000000000000
FC000000000000
FC000000000000
FC000000000000
FC000000000000
ENDCHAR
STARTCHAR 0071
ENCODING 113
SWIDTH 583 0
DWIDTH 56 0
BBX 49 71 1 -7
BITMAP
003FFFFFFE0000
00FFFFFFFFC000
03FFFFFFFFE000
07FFFFFFFFF800
0FFFFFFFFFFC00
1FFFFFFFFFFC00
3FE0000003FE00
7F80000000FF00
7F000000007F00
7E000000003F80
FE000000003F80
FC000000001F80
FC000000001F80
FC000000001F80
FC000000001F80
FC000000001F80
FC000000001F80
FC000000001F80
FC000000001F80
FC000000001F80
FC000000001F80
FC000000001F80
FC000000001F80
FC000000001F80
FC000000001F80
FC000000001F80
FC000000001F80
FC000000001F80
FC000000001F80
FC000000001F80
FC000000001F80
FC000000001F80
FC000000001F80
FC000000001F80
FC000000001F80
FC000000001F80
FC000000001F80
FC000000001F80
FC000000001F80
FC000000001F80
FC000000001F80
FC000000001F80
FC000000001F80
FC000000001F80
FC000000001F80
FC000000001F80
FC000000001F80
FC000000001F80
FC000000001F80
FC000000001F80
FC000000001F80
FC000000001F80
FC000000001F80
FE000000003F80
7E000000003F80
7F000000007F00
7F80000000FF00
3FE0000003FE00
1FFFF87FFFFC00
0FFFF9FFFFFC00
07FFFFFFFFF800
03FFFFFFFFE000
01FFFFFFFFC000
003FFFFFFE0000
00007FC0000000
0000FF00000000
0001FE00000000
0001FC00000000
0000F800000000
00007000000000
00002000000000
ENDCHAR
STARTCHAR 0072
ENCODING 114
SWIDTH 583 0
DWIDTH 56 0
BBX 49 64 1 0
BITMAP
003FFFFFFE0000
01FFFFFFFFC000
03FFFFFFFFE000
07FFFFFFFFF000
0FFFFFFFFFF800
1FFFFFFFFFFC00
3FE0000003FE00
7F80000000FF00
7F000000007F00
7E000000003F00
FE000000003F80
FC000000001F80
FC000000001F80
FC000000001F80
FC000000001F80
FC000000001F80
FC000000001F80
FC000000001F80
FC000000001F80
FC000000001F80
FC000000001F80
FC000000001F80
FC000000001F80
FC000000003F80
FC000000003F00
FC000000007F00
FC00000000FF00
FC00000007FE00
FFFFFFFFFFFC00
FFFFFFFFFFF800
FFFFFFFFFFF000
FFFFFFFFFFE000
FFFFFFFFFF8000
FFFFFFFFFC0000
FC0007FF800000
FC0001FFC00000
FC0000FFF00000
FC00003FF80000
FC00001FFE0000
FC000007FF8000
FC000001FFC000
FC000000FFF000
FC0000003FF800
FC0000001FFC00
FC00000007FE00
FC00000001FE00
FC00000000FF00
FC000000007F00
FC000000003F80
FC000000003F80
FC000000001F80
FC000000001F80
FC000000001F80
FC000000001F80
FC000000001F80
FC000000001F80
FC000000001F80
FC000000001F80
FC000000001F80
FC000000001F80
FC000000001F80
FC000000001F80
FC000000001F80
FC000000001F80
ENDCHAR
STARTCHAR 0073
ENCODING 115
SWIDTH 583 0
DWIDTH 56 0
BBX 49 64 1 0
BITMAP
003FFFFFFE0000
01FFFFFFFFC000
03FFFFFFFFE000
07FFFFFFFFF000
0FFFFFFFFFF800
1FFFFFFFFFFC00
3FE0000003FE00
7F80000000FF00
7F000000007F00
7E000000003F00
FE000000003F80
FC000000001F80
FC000000001F80
FC000000001F80
FC000000001F80
FC000000001F80
FC000000001F80
FC000000000000
FC000000000000
FE000000000000
7E000000000000
7F000000000000
3FC00000000000
3FF00000000000
1FFC0000000000
0FFF8000000000
07FFE000000000
03FFFC00000000
00FFFF00000000
003FFFC0000000
0007FFF8000000
0001FFFE000000
00003FFFC00000
00000FFFF00000
000001FFFE0000
0000007FFF8000
0000001FFFE000
00000003FFF000
00000000FFF800
000000001FFC00
0000000007FE00
0000000001FE00
00000000007F00
00000000003F00
00000000003F80
00000000001F80
00000000001F80
FC000000001F80
FC000000001F80
FC000000001F80
FC000000001F80
FC000000001F80
FC000000001F80
FE000000003F80
7E000000003F00
7F000000007F00
7F80000000FF00
3FE0000003FE00
1FFFFFFFFFFC00
0FFFFFFFFFF800
07FFFFFFFFF000
03FFFFFFFFE000
01FFFFFFFFC000
003FFFFFFE0000
ENDCHAR
STARTCHAR 0074
ENCODING 116
SWIDTH 572 0
DWIDTH 55 0
BBX 49 64 0 0
BITMAP
FFFFFFFFFFFF80
FFFFFFFFFFFF80
FFFFFFFFFFFF80
FFFFFFFFFFFF80
FFFFFFFFFFFF80
FFFFFFFFFFFF80
000007F0000000
000007F0000000
000007F0000000
000007F0000000
000007F0000000
000007F0000000
000007F0000000
000007F0000000
000007F0000000
000007F0000000
000007F0000000
000007F0000000
000007F0000000
000007F0000000
000007F0000000
000007F0000000
000007F0000000
000007F0000000
000007F0000000
000007F0000000
000007F0000000
000007F0000000
000007F0000000
000007F0000000
000007F0000000
000007F0000000
000007F0000000
000007F0000000
000007F0000000
000007F0000000
000007F0000000
000007F0000000
000007F0000000
000007F0000000
000007F0000000
000007F0000000
000007F0000000
000007F0000000
000007F0000000
000007F0000000
000007F0000000
000007F0000000
000007F0000000
000007F0000000
000007F0000000
000007F0000000
000007F0000000
000007F0000000
000007F0000000
000007F0000000
000007F0000000
000007F0000000
000007F0000000
000007F0000000
000007F0000000
000007F0000000
000007F0000000
000007F0000000
ENDCHAR
STARTCHAR 0075
ENCODING 117
SWIDTH 583 0
DWIDTH 56 0
BBX 49 64 1 0
BITMAP
FC000000001F80
FC000000001F80
FC000000001F80
FC000000001F80
FC000000001F80
FC000000001F80
FC000000001F80
FC000000001F80
FC000000001F80
FC000000001F80
FC000000001F80
FC000000001F80
FC000000001F80
FC000000001F80
FC000000001F80
FC000000001F80
FC000000001F80
FC000000001F80
FC000000001F80
FC000000001F80
FC000000001F80
FC000000001F80
FC000000001F80
FC000000001F80
FC000000001F80
FC000000001F80
FC000000001F80
FC000000001F80
FC000000001F80
FC000000001F80
FC000000001F80
FC000000001F80
FC000000001F80
FC000000001F80
FC000000001F80
FC000000001F80
FC000000001F80
FC000000001F80
FC000000001F80
FC000000001F80
FC000000001F80
FC000000001F80
FC000000001F80
FC000000001F80
FC000000001F80
FC000000001F80
FC000000001F80
FC000000001F80
FC000000001F80
FC000000001F80
FC000000001F80
FC000000001F80
FC000000001F80
FE000000003F80
7E000000003F00
7F000000007F00
7F80000000FF00
3FE0000003FE00
1FFFFFFFFFFC00
0FFFFFFFFFF800
07FFFFFFFFF000
03FFFFFFFFE000
01FFFFFFFFC000
003FFFFFFE0000
ENDCHAR
STARTCHAR 0076
ENCODING 118
SWIDTH 677 0
DWIDTH 65 0
BBX 58 65 1 -1
BITMAP
FC00000000000FC0
FC00000000000FC0
FC00000000000FC0
FC00000000000FC0
FC00000000000FC0
FC00000000000FC0
FC00000000000FC0
FC00000000000FC0
FC00000000000FC0
FC00000000000FC0
FC00000000000FC0
FC00000000000FC0
FC00000000000FC0
FC00000000000FC0
FC00000000000FC0
FC00000000000FC0
FC00000000000FC0
FC00000000000FC0
FC00000000000FC0
FC00000000000FC0
FC00000000000FC0
FC00000000000FC0
FC00000000000FC0
FC00000000000FC0
FC00000000000FC0
FC00000000000FC0
FC00000000000FC0
FC00000000000FC0
FC00000000000FC0
FC00000000000FC0
FC00000000000FC0
FC00000000000FC0
FC00000000000FC0
FC00000000000FC0
FC00000000000FC0
FC00000000000FC0
FC00000000000FC0
FC00000000000FC0
FC00000000000FC0
FC00000000000FC0
FC00000000000FC0
FC00000000001FC0
FE00000000001F80
FE00000000001F80
7F00000000003F80
7F80000000007F00
3FC000000001FF00
3FF000000003FE00
1FF80000000FFE00
0FFE0000001FFC00
07FF0000007FF000
01FFC00000FFE000
00FFE00003FF8000
003FF80007FF0000
001FFC001FFC0000
0007FF003FF80000
0003FFC0FFE00000
0000FFE1FFC00000
00007FFFFF000000
00001FFFFE000000
00000FFFF8000000
000003FFF0000000
000001FFC0000000
0000007F80000000
0000001E00000000
ENDCHAR
STARTCHAR 0077
ENCODING 119
SWIDTH 1208 0
DWIDTH 116 0
BBX 109 65 1 -1
BITMAP
FC00000000000FC00000000001F8
FC00000000000FC00000000001F8
FC00000000000FC00000000001F8
FC00000000000FC00000000001F8
FC00000000000FC00000000001F8
FC00000000000FC00000000001F8
FC00000000000FC00000000001F8
FC00000000000FC00000000001F8
FC00000000000FC00000000001F8
FC00000000000FC00000000001F8
FC00000000000FC00000000001F8
FC00000000000FC00000000001F8
FC00000000000FC00000000001F8
FC00000000000FC00000000001F8
FC00000000000FC00000000001F8
FC00000000000FC00000000001F8
FC00000000000FC00000000001F8
FC00000000000FC00000000001F8
FC00000000000FC00000000001F8
FC00000000000FC00000000001F8
FC00000000000FC00000000001F8
FC00000000000FC00000000001F8
FC00000000000FC00000000001F8
FC00000000000FC00000000001F8
FC00000000000FC00000000001F8
FC00000000000FC00000000001F8
FC00000000000FC00000000001F8
FC00000000000FC00000000001F8
FC00000000000FC00000000001F8
FC00000000000FC00000000001F8
FC00000000000FC00000000001F8
FC00000000000FC00000000001F8
FC00000000000FC00000000001F8
FC00000000000FC00000000001F8
FC00000000000FC00000000001F8
FC00000000000FC00000000001F8
FC00000000000FC00000000001F8
FC00000000000FC00000000001F8
FC00000000000FC00000000001F8
FC00000000000FC00000000001F8
FC00000000001FC00000000001F8
FC00000000001FC00000000001F8
FE00000000001FC00000000001F8
FE00000000001FE00000000003F8
7F00000000003FE00000000007F0
7F80000000007FF0000000000FF0
3FC000000001FFFC000000001FE0
3FF000000003FFFE000000007FE0
1FF80000000FFDFF80000000FFC0
0FFE0000001FF8FFC0000003FF80
07FF0000007FF07FF0000007FF00
01FFC00000FFE03FF800001FFC00
00FFE00003FF800FFE00003FF800
003FF80007FF0003FF8000FFE000
001FFE001FFC0001FFC001FFC000
0007FF003FF80000FFF007FF0000
0003FFC0FFE000003FF80FFE0000
0000FFE1FFC000001FFE3FF80000
00007FFFFF00000007FF7FF00000
00001FFFFE00000001FFFFC00000
00000FFFF800000000FFFF800000
000003FFF0000000003FFE000000
000000FFC0000000001FFC000000
0000007F800000000007F0000000
0000001E000000000003E0000000
ENDCHAR
STARTCHAR 0078
ENCODING 120
SWIDTH 677 0
DWIDTH 65 0
BBX 58 64 1 0
BITMAP
FC00000000000FC0
FC00000000000FC0
FC00000000000FC0
FC00000000000FC0
FC00000000000FC0
FC00000000000FC0
FC00000000000FC0
FC00000000000FC0
FC00000000001FC0
FC00000000001FC0
FE00000000001F80
7E00000000003F80
7F00000000003F80
7F8000000000FF00
3FE000000001FF00
1FF000000007FE00
1FFC0000000FFC00
0FFF0000003FF800
03FF800000FFF000
01FFE00001FFC000
007FF80007FF8000
001FFC001FFE0000
000FFF003FFC0000
0003FF80FFF00000
0001FFE3FFC00000
00007FFFFF800000
00001FFFFE000000
00000FFFF8000000
000003FFF0000000
000007FFF0000000
00000FFFFC000000
00003FFFFF000000
0000FFF3FF800000
0001FFC1FFE00000
0007FF807FF80000
001FFE001FFC0000
003FF8000FFF0000
00FFF00003FF8000
01FFC00001FFE000
07FF0000007FF000
0FFE0000001FFC00
1FF80000000FFE00
3FF000000003FE00
3FC000000000FF00
7F80000000007F80
7F00000000003F80
FE00000000001F80
FC00000000001F80
FC00000000001FC0
FC00000000001FC0
FC00000000000FC0
FC00000000000FC0
FC00000000000FC0
FC00000000000FC0
FC00000000000FC0
FC00000000000FC0
FC00000000000FC0
FC00000000000FC0
FC00000000000FC0
FC00000000000FC0
FC00000000000FC0
FC00000000000FC0
FC00000000000FC0
FC00000000000FC0
ENDCHAR
STARTCHAR 0079
ENCODING 121
SWIDTH 583 0
DWIDTH 56 0
BBX 49 64 1 0
BITMAP
FC000000001F80
FC000000001F80
FC000000001F80
FC000000001F80
FC000000001F80
FC000000001F80
FC000000001F80
FC000000001F80
FC000000001F80
FC000000001F80
FC000000001F80
FC000000001F80
FC000000001F80
FC000000001F80
FC000000001F80
FC000000001F80
FC000000001F80
FC000000001F80
FC000000001F80
FC000000001F80
FC000000001F80
FC000000001F80
FC000000001F80
FC000000001F80
FC000000001F80
FC000000001F80
FC000000001F80
FC000000001F80
FC000000001F80
FC000000001F80
FC000000001F80
FE000000001F80
FE000000001F80
7F000000001F80
7F800000001F80
3FC00000001F80
3FFFFFFFFFFF80
1FFFFFFFFFFF80
0FFFFFFFFFFF80
07FFFFFFFFFF80
01FFFFFFFFFF80
00FFFFFFFFFF80
00000000001F80
00000000001F80
00000000001F80
00000000001F80
00000000001F80
00000000001F80
00000000001F80
00000000001F80
00000000001F80
00000000001F80
00000000001F80
00000000003F80
00000000003F00
00000000007F00
0000000000FF00
0000000003FE00
0FFFFFFFFFFC00
0FFFFFFFFFF800
0FFFFFFFFFF000
0FFFFFFFFFE000
0FFFFFFFFFC000
0FFFFFFFFE0000
ENDCHAR
STARTCHAR 007A
ENCODING 122
SWIDTH 583 0
DWIDTH 56 0
BBX 49 64 1 0
BITMAP
FFFFFFFFFE0000
FFFFFFFFFFC000
FFFFFFFFFFE000
FFFFFFFFFFF000
FFFFFFFFFFF800
FFFFFFFFFFFC00
0000000003FE00
0000000000FF00
00000000007F00
00000000003F00
00000000003F80
00000000001F80
00000000001F80
00000000001F80
00000000001F80
00000000001F80
00000000001F80
00000000003F80
00000000007F00
0000000000FF00
0000000001FF00
0000000007FE00
000000001FFC00
000000007FF800
00000000FFF000
00000003FFC000
0000000FFF8000
0000003FFE0000
000000FFF80000
000001FFE00000
000007FF800000
00001FFF000000
00007FFC000000
0001FFF0000000
0003FFC0000000
000FFF00000000
003FFE00000000
00FFF800000000
01FFE000000000
07FF8000000000
0FFE0000000000
1FFC0000000000
3FF00000000000
3FC00000000000
7F800000000000
7F000000000000
FE000000000000
FC000000000000
FC000000000000
FC000000000000
FC000000000000
FC000000000000
FC000000000000
FE000000000000
7E000000000000
7F000000000000
7F800000000000
3FE00000000000
1FFFFFFFFFFF80
0FFFFFFFFFFF80
07FFFFFFFFFF80
03FFFFFFFFFF80
01FFFFFFFFFF80
003FFFFFFFFF80
ENDCHAR
STARTCHAR 007B
ENCODING 123
SWIDTH 666 0
DWIDTH 64 0
BBX 0 0 0 0
BITMAP
ENDCHAR
STARTCHAR 007C
ENCODING 124
SWIDTH 333 0
DWIDTH 32 0
BBX 0 0 0 0
BITMAP
ENDCHAR
STARTCHAR 007D
ENCODING 125
SWIDTH 666 0
DWIDTH 64 0
BBX 0 0 0 0
BITMAP
ENDCHAR
STARTCHAR 007E
ENCODING 126
SWIDTH 833 0
DWIDTH 80 0
BBX 0 0 0 0
BITMAP
ENDCHAR
STARTCHAR 00A0
ENCODING 160
SWIDTH 833 0
DWIDTH 80 0
BBX 0 0 0 0
BITMAP
ENDCHAR
STARTCHAR 00A9
ENCODING 169
SWIDTH 625 0
DWIDTH 60 0
BBX 53 64 1 0
BITMAP
003FFFFFFFE000
01FFFFFFFFFC00
03FFFFFFFFFF00
07FFFFFFFFFF80
0FFFFFFFFFFFC0
1FFFFFFFFFFFE0
3FE00000001FE0
7F800000000FF0
7F0000000007F0
7E0000000003F8
FE0000000001F8
FC0000000001F8
FC0000000001F8
FC0000000001F8
FC0007FFFE01F8
FC003FFFFE01F8
FC007FFFFE01F8
FC00FFFFFE01F8
FC01FFFFFE01F8
FC01FFFFFE01F8
FC03FC000001F8
FC03F0000001F8
FC03F0000001F8
FC03F0000001F8
FC03F0000001F8
FC03F0000001F8
FC03F0000001F8
FC03F0000001F8
FC03F0000001F8
FC03F0000001F8
FC03F0000001F8
FC03F0000001F8
FC03F0000001F8
FC03F0000001F8
FC03F0000001F8
FC03F0000001F8
FC03F0000001F8
FC03F0000001F8
FC03F0000001F8
FC03F0000001F8
FC03F0000001F8
FC03F0000001F8
FC03F0000001F8
FC03FFFFFE01F8
FC01FFFFFE01F8
FC01FFFFFE01F8
FC00FFFFFE01F8
FC007FFFFE01F8
FC003FFFFE01F8
FC0003FFFE01F8
FC0000000001F8
FC0000000001F8
FC0000000001F8
FE0000000001F8
7E0000000003F8
7F0000000007F0
7F800000000FF0
3FE00000003FE0
1FFFFFFFFFFFE0
0FFFFFFFFFFFC0
07FFFFFFFFFF80
03FFFFFFFFFF00
01FFFFFFFFFC00
003FFFFFFFE000
ENDCHAR
STARTCHAR 00AE
ENCODING 174
SWIDTH 635 0
DWIDTH 61 0
BBX 53 64 1 0
BITMAP
003FFFFFFFE000
01FFFFFFFFFC00
03FFFFFFFFFF00
07FFFFFFFFFF80
0FFFFFFFFFFFC0
1FFFFFFFFFFFE0
3FE00000001FE0
7F800000000FF0
7F0000000007F0
7E0000000003F8
FE0000000001F8
FC0000000001F8
FC0000000001F8
FC0000000001F8
FC000FFF8001F8
FC007FFFF001F8
FC00FFFFFC01F8
FC01FFFFFE01F8
FC03FFFFFE01F8
FC03FFFFFF01F8
FC07F8007F01F8
FC07E0003F01F8
FC07E0003F81F8
FC07E0003F81F8
FC07E0003F81F8
FC07E0003F81F8
FC07E0003F01F8
FC07E0003F01F8
FC07FFFFFF01F8
FC07FFFFFF01F8
FC07FFFFFE01F8
FC07FFFFFE01F8
FC07FFFFFE01F8
FC07FFFFFF01F8
FC07E000FF01F8
FC07E0003F01F8
FC07E0003F81F8
FC07E0003F81F8
FC07E0003F81F8
FC07E0003F81F8
FC07E0003F81F8
FC07E0003F81F8
FC07E0003F81F8
FC07E0003F81F8
FC07E0003F81F8
FC07E0003F81F8
FC07E0003F81F8
FC07E0003F81F8
FC07E0003F81F8
FC07E0003F81F8
FC0000000001F8
FC0000000001F8
FC0000000001F8
FE0000000001F8
7E0000000003F8
7F0000000007F0
7F800000000FF0
3FE00000003FE0
1FFFFFFFFFFFE0
0FFFFFFFFFFFC0
07FFFFFFFFFF80
03FFFFFFFFFF00
01FFFFFFFFFC00
003FFFFFFFE000
ENDCHAR
STARTCHAR 00C4
ENCODING 196
SWIDTH 583 0
DWIDTH 56 0
BBX 49 75 1 -1
BITMAP
0007E007E00000
0007E007E00000
0007E007E00000
0007E007E00000
0007E007E00000
0007E007E00000
00000000000000
00000000000000
00000000000000
00000000000000
003FFFFFFE0000
01FFFFFFFFC000
03FFFFFFFFE000
0FFFFFFFFFF800
1FFFFFFFFFFC00
1FFFFFFFFFFC00
3FE0000003FE00
7F80000000FF00
7F000000007F00
7E000000003F00
FE000000003F80
FC000000001F80
FC000000001F80
FC000000001F80
FC000000001F80
FC000000001F80
FC000000001F80
FC000000001F80
FC000000001F80
FC000000001F80
FC000000001F80
FC000000001F80
FC000000001F80
FC000000001F80
FC000000001F80
FC000000001F80
FC000000001F80
FC000000001F80
FC000000001F80
FC000000001F80
FC000000001F80
FFFE0000001F80
FFFFC000001F80
FFFFF000001F80
FFFFF800001F80
FFFFFC00001F80
FFFFFE00001F80
FC03FF00001F80
FC00FF80001F80
FC007FC0001F80
FC003FE0001F80
FC001FE0001F80
FC000FF0001F80
FC0007F8001F80
FC0003FC001F80
FC0001FE001F80
FC0000FF001F80
FC00007F801F80
FC00003FC01F80
FC00001FE01F80
FC00000FF01F80
FC000007F81F80
FC000003FC1F80
FC000001FE1F80
FC000000FF1F80
FC000000FF9F80
FC0000007FDF80
FC0000003FFF80
FC0000001FFF80
FC0000000FFF80
FC00000007FF80
FC00000003FF80
FC00000001FF00
FC00000000FE00
00000000003C00
ENDCHAR
STARTCHAR 00D6
ENCODING 214
SWIDTH 583 0
DWIDTH 56 0
BBX 49 74 1 0
BITMAP
0007E007E00000
0007E007E00000
0007E007E00000
0007E007E00000
0007E007E00000
0007E007E00000
00000000000000
00000000000000
00000000000000
00000000000000
003FFFFFFE0000
01FFFFFFFFC000
03FFFFFFFFE000
0FFFFFFFFFF800
1FFFFFFFFFFC00
1FFFFFFFFFFC00
3FE0000003FE00
7F80000000FF00
7F000000007F00
7E000000003F00
FE000000003F80
FC000000001F80
FC000000001F80
FC000000001F80
FC000000001F80
FC000000001F80
FC000000001F80
FC000000001F80
FC000000001F80
FC000000001F80
FC000000001F80
FC000000001F80
FC000000001F80
FC000000001F80
FC000000001F80
FC000000001F80
FC000000001F80
FC000000001F80
FC000000001F80
FC000000001F80
FC000000001F80
FC000000001F80
FC000000001F80
FC000000001F80
FC000000001F80
FC000000001F80
FC000000001F80
FC000000001F80
FC000000001F80
FC000000001F80
FC000000001F80
FC000000001F80
FC000000001F80
FC000000001F80
FC000000001F80
FC000000001F80
FC000000001F80
FC000000001F80
FC000000001F80
FC000000001F80
FC000000001F80
FC000000001F80
FC000000001F80
FE000000003F80
7E000000003F00
7F000000007F00
7F80000000FF00
3FE0000003FE00
1FFFFFFFFFFC00
0FFFFFFFFFF800
07FFFFFFFFF000
03FFFFFFFFE000
01FFFFFFFFC000
003FFFFFFE0000
ENDCHAR
STARTCHAR 00DC
ENCODING 220
SWIDTH 583 0
DWIDTH 56 0
BBX 49 74 1 0
BITMAP
0007E007E00000
0007E007E00000
0007E007E00000
0007E007E00000
0007E007E00000
0007E007E00000
00000000000000
00000000000000
00000000000000
00000000000000
FC000000001F80
FC000000001F80
FC000000001F80
FC000000001F80
FC000000001F80
FC000000001F80
FC000000001F80
FC000000001F80
FC000000001F80
FC000000001F80
FC000000001F80
FC000000001F80
FC000000001F80
FC000000001F80
FC000000001F80
FC000000001F80
FC000000001F80
FC000000001F80
FC000000001F80
FC000000001F80
FC000000001F80
FC000000001F80
FC000000001F80
FC000000001F80
FC000000001F80
FC000000001F80
FC000000001F80
FC000000001F80
FC000000001F80
FC000000001F80
FC000000001F80
FC000000001F80
FC000000001F80
FC000000001F80
FC000000001F80
FC000000001F80
FC000000001F80
FC000000001F80
FC000000001F80
FC000000001F80
FC000000001F80
FC000000001F80
FC000000001F80
FC000000001F80
FC000000001F80
FC000000001F80
FC000000001F80
FC000000001F80
FC000000001F80
FC000000001F80
FC000000001F80
FC000000001F80
FC000000001F80
FE000000003F80
7E000000003F00
7F000000007F00
7F80000000FF00
3FE0000003FE00
1FFFFFFFFFFC00
0FFFFFFFFFF800
07FFFFFFFFF000
03FFFFFFFFE000
01FFFFFFFFC000
003FFFFFFE0000
ENDCHAR
STARTCHAR 00E4
ENCODING 228
SWIDTH 583 0
DWIDTH 56 0
BBX 49 75 1 -1
BITMAP
0007E007E00000
0007E007E00000
0007E007E00000
0007E007E00000
0007E007E00000
0007E007E00000
00000000000000
00000000000000
00000000000000
00000000000000
003FFFFFFE0000
01FFFFFFFFC000
03FFFFFFFFE000
0FFFFFFFFFF800
1FFFFFFFFFFC00
1FFFFFFFFFFC00
3FE0000003FE00
7F80000000FF00
7F000000007F00
7E000000003F00
FE000000003F80
FC000000001F80
FC000000001F80
FC000000001F80
FC000000001F80
FC000000001F80
FC000000001F80
FC000000001F80
FC000000001F80
FC000000001F80
FC000000001F80
FC000000001F80
FC000000001F80
FC000000001F80
FC000000001F80
FC000000001F80
FC000000001F80
FC000000001F80
FC000000001F80
FC000000001F80
FC000000001F80
FFFE0000001F80
FFFFC000001F80
FFFFF000001F80
FFFFF800001F80
FFFFFC00001F80
FFFFFE00001F80
FC03FF00001F80
FC00FF80001F80
FC007FC0001F80
FC003FE0001F80
FC001FE0001F80
FC000FF0001F80
FC0007F8001F80
FC0003FC001F80
FC0001FE001F80
FC0000FF001F80
FC00007F801F80
FC00003FC01F80
FC00001FE01F80
FC00000FF01F80
FC000007F81F80
FC000003FC1F80
FC000001FE1F80
FC000000FF1F80
FC000000FF9F80
FC0000007FDF80
FC0000003FFF80
FC0000001FFF80
FC0000000FFF80
FC00000007FF80
FC00000003FF80
FC00000001FF00
FC00000000FE00
00000000003C00
ENDCHAR
STARTCHAR 00F6
ENCODING 246
SWIDTH 583 0
DWIDTH 56 0
BBX 49 74 1 0
BITMAP
0007E007E00000
0007E007E00000
0007E007E00000
0007E007E00000
0007E007E00000
0007E007E00000
00000000000000
00000000000000
00000000000000
00000000000000
003FFFFFFE0000
01FFFFFFFFC000
03FFFFFFFFE000
0FFFFFFFFFF800
1FFFFFFFFFFC00
1FFFFFFFFFFC00
3FE0000003FE00
7F80000000FF00
7F000000007F00
7E000000003F00
FE000000003F80
FC000000001F80
FC000000001F80
FC000000001F80
FC000000001F80
FC000000001F80
FC000000001F80
FC000000001F80
FC000000001F80
FC000000001F80
FC000000001F80
FC000000001F80
FC000000001F80
FC000000001F80
FC000000001F80
FC000000001F80
FC000000001F80
FC000000001F80
FC000000001F80
FC000000001F80
FC000000001F80
FC000000001F80
FC000000001F80
FC000000001F80
FC000000001F80
FC000000001F80
FC000000001F80
FC000000001F80
FC000000001F80
FC000000001F80
FC000000001F80
FC000000001F80
FC000000001F80
FC000000001F80
FC000000001F80
FC000000001F80
FC000000001F80
FC000000001F80
FC000000001F80
FC000000001F80
FC000000001F80
FC000000001F80
FC000000001F80
FE000000003F80
7E000000003F00
7F000000007F00
7F80000000FF00
3FE0000003FE00
1FFFFFFFFFFC00
0FFFFFFFFFF800
07FFFFFFFFF000
03FFFFFFFFE000
01FFFFFFFFC000
003FFFFFFE0000
ENDCHAR
STARTCHAR 00FC
ENCODING 252
SWIDTH 583 0
DWIDTH 56 0
BBX 49 74 1 0
BITMAP
0007E007E00000
0007E007E00000
0007E007E00000
0007E007E00000
0007E007E00000
0007E007E00000
00000000000000
00000000000000
00000000000000
00000000000000
FC000000001F80
FC000000001F80
FC000000001F80
FC000000001F80
FC000000001F80
FC000000001F80
FC000000001F80
FC000000001F80
FC000000001F80
FC000000001F80
FC000000001F80
FC000000001F80
FC000000001F80
FC000000001F80
FC000000001F80
FC000000001F80
FC000000001F80
FC000000001F80
FC000000001F80
FC000000001F80
FC000000001F80
FC000000001F80
FC000000001F80
FC000000001F80
FC000000001F80
FC000000001F80
FC000000001F80
FC000000001F80
FC000000001F80
FC000000001F80
FC000000001F80
FC000000001F80
FC000000001F80
FC000000001F80
FC000000001F80
FC000000001F80
FC000000001F80
FC000000001F80
FC000000001F80
FC000000001F80
FC000000001F80
FC000000001F80
FC000000001F80
FC000000001F80
FC000000001F80
FC000000001F80
FC000000001F80
FC000000001F80
FC000000001F80
FC000000001F80
FC000000001F80
FC000000001F80
FC000000001F80
FE000000003F80
7E000000003F00
7F000000007F00
7F80000000FF00
3FE0000003FE00
1FFFFFFFFFFC00
0FFFFFFFFFF800
07FFFFFFFFF000
03FFFFFFFFE000
01FFFFFFFFC000
003FFFFFFE0000
ENDCHAR
STARTCHAR 2010
ENCODING 8208
SWIDTH 406 0
DWIDTH 39 0
BBX 31 6 1 30
BITMAP
FFFFFFFE
FFFFFFFE
FFFFFFFE
FFFFFFFE
FFFFFFFE
FFFFFFFE
ENDCHAR
ENDFONT
